M48
; DRILL file {KiCad (5.1.10)-1} date 08/17/21 23:46:37
; FORMAT={-:-/ absolute / inch / decimal}
; #@! TF.CreationDate,2021-08-17T23:46:37-04:00
; #@! TF.GenerationSoftware,Kicad,Pcbnew,(5.1.10)-1
; #@! TF.FileFunction,Plated,1,2,PTH
FMAT,2
INCH
T1C0.0157
T2C0.0276
T3C0.0591
%
G90
G05
T1
X2.33Y-2.81
X2.48Y-2.81
X3.07Y-3.6263
X3.1645Y-2.4072
X3.38Y-2.3685
X3.43Y-2.49
X3.43Y-2.98
X3.47Y-2.46
X3.47Y-2.95
X3.56Y-2.37
X3.58Y-2.81
X3.58Y-2.94
X3.6Y-2.3
X3.64Y-2.75
X3.64Y-3.0608
X3.67Y-3.22
X3.67Y-3.26
X3.67Y-3.2994
X3.67Y-3.3387
X3.87Y-3.33
X4.03Y-2.68
X4.07Y-2.84
T2
X1.909Y-2.7188
X1.909Y-3.4688
X2.216Y-2.7188
X2.216Y-3.4688
X2.659Y-2.7188
X2.659Y-3.4688
X2.966Y-2.7188
X2.966Y-3.4688
T2
G00X2.2938Y-2.2938
M15
G01X2.2938Y-2.3922
M16
G05
G00X2.5812Y-2.2938
M15
G01X2.5812Y-2.3922
M16
G05
T3
G00X1.9581Y-2.3553
M15
G01X1.9106Y-2.43
M16
G05
G00X1.9581Y-3.1053
M15
G01X1.9106Y-3.18
M16
G05
G00X2.1625Y-2.3313
M15
G01X2.1609Y-2.3541
M16
G05
G00X2.1625Y-3.0813
M15
G01X2.1609Y-3.1041
M16
G05
G00X2.7081Y-2.3553
M15
G01X2.6606Y-2.43
M16
G05
G00X2.7081Y-3.1053
M15
G01X2.6606Y-3.18
M16
G05
G00X2.9125Y-2.3313
M15
G01X2.9109Y-2.3541
M16
G05
G00X2.9125Y-3.0813
M15
G01X2.9109Y-3.1041
M16
G05
T0
M30
