%TF.GenerationSoftware,KiCad,Pcbnew,(5.1.10)-1*%
%TF.CreationDate,2021-08-17T23:44:39-04:00*%
%TF.ProjectId,Keyboard_Schematic,4b657962-6f61-4726-945f-536368656d61,rev?*%
%TF.SameCoordinates,Original*%
%TF.FileFunction,Copper,L1,Top*%
%TF.FilePolarity,Positive*%
%FSLAX46Y46*%
G04 Gerber Fmt 4.6, Leading zero omitted, Abs format (unit mm)*
G04 Created by KiCad (PCBNEW (5.1.10)-1) date 2021-08-17 23:44:39*
%MOMM*%
%LPD*%
G01*
G04 APERTURE LIST*
%TA.AperFunction,ComponentPad*%
%ADD10C,1.600000*%
%TD*%
%TA.AperFunction,ComponentPad*%
%ADD11R,1.600000X1.600000*%
%TD*%
%TA.AperFunction,ComponentPad*%
%ADD12O,1.500000X4.000000*%
%TD*%
%TA.AperFunction,ViaPad*%
%ADD13C,0.800000*%
%TD*%
%TA.AperFunction,Conductor*%
%ADD14C,0.250000*%
%TD*%
%TA.AperFunction,Conductor*%
%ADD15C,0.254000*%
%TD*%
%TA.AperFunction,Conductor*%
%ADD16C,0.100000*%
%TD*%
G04 APERTURE END LIST*
D10*
%TO.P,D1,2*%
%TO.N,Net-(D1-Pad2)*%
X56287500Y-69056250D03*
D11*
%TO.P,D1,1*%
%TO.N,/row0*%
X48487500Y-69056250D03*
%TD*%
D10*
%TO.P,D2,2*%
%TO.N,Net-(D2-Pad2)*%
X56287500Y-88106250D03*
D11*
%TO.P,D2,1*%
%TO.N,/row1*%
X48487500Y-88106250D03*
%TD*%
%TO.P,D3,1*%
%TO.N,/row0*%
X67537500Y-69056250D03*
D10*
%TO.P,D3,2*%
%TO.N,Net-(D3-Pad2)*%
X75337500Y-69056250D03*
%TD*%
D11*
%TO.P,D4,1*%
%TO.N,/row1*%
X67537500Y-88106250D03*
D10*
%TO.P,D4,2*%
%TO.N,Net-(D4-Pad2)*%
X75337500Y-88106250D03*
%TD*%
D12*
%TO.P,J1,6*%
%TO.N,GND*%
X58262500Y-59512500D03*
X65562500Y-59512500D03*
%TD*%
%TO.P,K1,1*%
%TO.N,/col0*%
%TA.AperFunction,ComponentPad*%
G36*
G01*
X47473799Y-61050940D02*
X48682723Y-59153310D01*
G75*
G02*
X50408587Y-58770696I1054239J-671625D01*
G01*
X50408587Y-58770696D01*
G75*
G02*
X50791201Y-60496560I-671625J-1054239D01*
G01*
X49582277Y-62394190D01*
G75*
G02*
X47856413Y-62776804I-1054239J671625D01*
G01*
X47856413Y-62776804D01*
G75*
G02*
X47473799Y-61050940I671625J1054239D01*
G01*
G37*
%TD.AperFunction*%
%TO.P,K1,2*%
%TO.N,Net-(D1-Pad2)*%
%TA.AperFunction,ComponentPad*%
G36*
G01*
X53640671Y-59708059D02*
X53680119Y-59129403D01*
G75*
G02*
X55012243Y-57967317I1247105J-85019D01*
G01*
X55012243Y-57967317D01*
G75*
G02*
X56174329Y-59299441I-85019J-1247105D01*
G01*
X56134881Y-59878097D01*
G75*
G02*
X54802757Y-61040183I-1247105J85019D01*
G01*
X54802757Y-61040183D01*
G75*
G02*
X53640671Y-59708059I85019J1247105D01*
G01*
G37*
%TD.AperFunction*%
%TD*%
%TO.P,K2,2*%
%TO.N,Net-(D2-Pad2)*%
%TA.AperFunction,ComponentPad*%
G36*
G01*
X53640671Y-78758059D02*
X53680119Y-78179403D01*
G75*
G02*
X55012243Y-77017317I1247105J-85019D01*
G01*
X55012243Y-77017317D01*
G75*
G02*
X56174329Y-78349441I-85019J-1247105D01*
G01*
X56134881Y-78928097D01*
G75*
G02*
X54802757Y-80090183I-1247105J85019D01*
G01*
X54802757Y-80090183D01*
G75*
G02*
X53640671Y-78758059I85019J1247105D01*
G01*
G37*
%TD.AperFunction*%
%TO.P,K2,1*%
%TO.N,/col0*%
%TA.AperFunction,ComponentPad*%
G36*
G01*
X47473799Y-80100940D02*
X48682723Y-78203310D01*
G75*
G02*
X50408587Y-77820696I1054239J-671625D01*
G01*
X50408587Y-77820696D01*
G75*
G02*
X50791201Y-79546560I-671625J-1054239D01*
G01*
X49582277Y-81444190D01*
G75*
G02*
X47856413Y-81826804I-1054239J671625D01*
G01*
X47856413Y-81826804D01*
G75*
G02*
X47473799Y-80100940I671625J1054239D01*
G01*
G37*
%TD.AperFunction*%
%TD*%
%TO.P,K3,2*%
%TO.N,Net-(D3-Pad2)*%
%TA.AperFunction,ComponentPad*%
G36*
G01*
X72690671Y-59708059D02*
X72730119Y-59129403D01*
G75*
G02*
X74062243Y-57967317I1247105J-85019D01*
G01*
X74062243Y-57967317D01*
G75*
G02*
X75224329Y-59299441I-85019J-1247105D01*
G01*
X75184881Y-59878097D01*
G75*
G02*
X73852757Y-61040183I-1247105J85019D01*
G01*
X73852757Y-61040183D01*
G75*
G02*
X72690671Y-59708059I85019J1247105D01*
G01*
G37*
%TD.AperFunction*%
%TO.P,K3,1*%
%TO.N,/col1*%
%TA.AperFunction,ComponentPad*%
G36*
G01*
X66523799Y-61050940D02*
X67732723Y-59153310D01*
G75*
G02*
X69458587Y-58770696I1054239J-671625D01*
G01*
X69458587Y-58770696D01*
G75*
G02*
X69841201Y-60496560I-671625J-1054239D01*
G01*
X68632277Y-62394190D01*
G75*
G02*
X66906413Y-62776804I-1054239J671625D01*
G01*
X66906413Y-62776804D01*
G75*
G02*
X66523799Y-61050940I671625J1054239D01*
G01*
G37*
%TD.AperFunction*%
%TD*%
%TO.P,K4,1*%
%TO.N,/col1*%
%TA.AperFunction,ComponentPad*%
G36*
G01*
X66523799Y-80100940D02*
X67732723Y-78203310D01*
G75*
G02*
X69458587Y-77820696I1054239J-671625D01*
G01*
X69458587Y-77820696D01*
G75*
G02*
X69841201Y-79546560I-671625J-1054239D01*
G01*
X68632277Y-81444190D01*
G75*
G02*
X66906413Y-81826804I-1054239J671625D01*
G01*
X66906413Y-81826804D01*
G75*
G02*
X66523799Y-80100940I671625J1054239D01*
G01*
G37*
%TD.AperFunction*%
%TO.P,K4,2*%
%TO.N,Net-(D4-Pad2)*%
%TA.AperFunction,ComponentPad*%
G36*
G01*
X72690671Y-78758059D02*
X72730119Y-78179403D01*
G75*
G02*
X74062243Y-77017317I1247105J-85019D01*
G01*
X74062243Y-77017317D01*
G75*
G02*
X75224329Y-78349441I-85019J-1247105D01*
G01*
X75184881Y-78928097D01*
G75*
G02*
X73852757Y-80090183I-1247105J85019D01*
G01*
X73852757Y-80090183D01*
G75*
G02*
X72690671Y-78758059I85019J1247105D01*
G01*
G37*
%TD.AperFunction*%
%TD*%
D13*
%TO.N,GND*%
X85852000Y-60161000D03*
X90424000Y-60198000D03*
X102362000Y-68072000D03*
X103378000Y-72136000D03*
X90932000Y-71374000D03*
X90932000Y-74676000D03*
X92456000Y-77743750D03*
%TO.N,/row0*%
X62992000Y-71374000D03*
X59182000Y-71374000D03*
X93218000Y-81788000D03*
%TO.N,/row1*%
X93218000Y-82804000D03*
%TO.N,Net-(J1-Pad3)*%
X91440000Y-58420000D03*
X80377540Y-61143770D03*
%TO.N,/col0*%
X93218000Y-83804003D03*
%TO.N,/col1*%
X93218000Y-84804006D03*
X77978000Y-92107010D03*
%TO.N,Net-(R1-Pad2)*%
X92456000Y-69850000D03*
X98298000Y-84582000D03*
%TO.N,/D-*%
X87122000Y-63246000D03*
X87122000Y-75692000D03*
%TO.N,/D+*%
X88138000Y-62484000D03*
X88138000Y-74930000D03*
%TD*%
D14*
%TO.N,GND*%
X90387000Y-60161000D02*
X90424000Y-60198000D01*
X85852000Y-60161000D02*
X90387000Y-60161000D01*
X102362000Y-68072000D02*
X103124000Y-68072000D01*
X103378000Y-68326000D02*
X103378000Y-72136000D01*
X103124000Y-68072000D02*
X103378000Y-68326000D01*
X91694000Y-72136000D02*
X90932000Y-71374000D01*
X90932000Y-74676000D02*
X91694000Y-73914000D01*
X91694000Y-73914000D02*
X91694000Y-72136000D01*
X92456000Y-74676000D02*
X91694000Y-73914000D01*
X92456000Y-77743750D02*
X92456000Y-74676000D01*
%TO.N,Net-(D1-Pad2)*%
X56287500Y-66701500D02*
X55118000Y-65532000D01*
X55118000Y-59714250D02*
X54907500Y-59503750D01*
X55118000Y-65532000D02*
X55118000Y-59714250D01*
X56287500Y-66701500D02*
X56287500Y-69056250D01*
%TO.N,/row0*%
X62992000Y-71374000D02*
X59182000Y-71374000D01*
X93218000Y-81788000D02*
X80518000Y-81788000D01*
X80518000Y-81788000D02*
X72136000Y-73406000D01*
X72136000Y-73406000D02*
X69850000Y-73406000D01*
X67537500Y-71093500D02*
X67537500Y-69056250D01*
X69850000Y-73406000D02*
X67537500Y-71093500D01*
%TO.N,Net-(D2-Pad2)*%
X56287500Y-88106250D02*
X56287500Y-85751500D01*
X56287500Y-85751500D02*
X55372000Y-84836000D01*
X55372000Y-79018250D02*
X54907500Y-78553750D01*
X55372000Y-84836000D02*
X55372000Y-79018250D01*
%TO.N,/row1*%
X93218000Y-82804000D02*
X86106000Y-82804000D01*
X86106000Y-82804000D02*
X77978000Y-90932000D01*
X77978000Y-90932000D02*
X69342000Y-90932000D01*
X67537500Y-89127500D02*
X67537500Y-88106250D01*
X69342000Y-90932000D02*
X67537500Y-89127500D01*
%TO.N,Net-(D3-Pad2)*%
X75337500Y-69056250D02*
X75337500Y-66193500D01*
X75337500Y-66193500D02*
X74168000Y-65024000D01*
X74168000Y-59714250D02*
X73957500Y-59503750D01*
X74168000Y-65024000D02*
X74168000Y-59714250D01*
%TO.N,Net-(D4-Pad2)*%
X74422000Y-79018250D02*
X73957500Y-78553750D01*
X75337500Y-88106250D02*
X75337500Y-86005500D01*
X75337500Y-86005500D02*
X74168000Y-84836000D01*
X74168000Y-78764250D02*
X73957500Y-78553750D01*
X74168000Y-84836000D02*
X74168000Y-78764250D01*
%TO.N,Net-(J1-Pad3)*%
X91440000Y-58420000D02*
X90424000Y-59436000D01*
X90424000Y-59436000D02*
X82296000Y-59436000D01*
X80588230Y-61143770D02*
X80377540Y-61143770D01*
X82296000Y-59436000D02*
X80588230Y-61143770D01*
%TO.N,/col0*%
X49132500Y-60773750D02*
X49132500Y-65421500D01*
X49132500Y-65421500D02*
X46736000Y-67818000D01*
X46736000Y-77427250D02*
X49132500Y-79823750D01*
X46736000Y-67818000D02*
X46736000Y-77427250D01*
X49132500Y-84946500D02*
X49132500Y-79823750D01*
X55568010Y-91382010D02*
X49132500Y-84946500D01*
X78543990Y-91382010D02*
X55568010Y-91382010D01*
X86121997Y-83804003D02*
X78543990Y-91382010D01*
X93218000Y-83804003D02*
X86121997Y-83804003D01*
%TO.N,/col1*%
X68182500Y-60773750D02*
X68182500Y-65167500D01*
X68182500Y-65167500D02*
X65532000Y-67818000D01*
X65532000Y-77173250D02*
X68182500Y-79823750D01*
X65532000Y-67818000D02*
X65532000Y-77173250D01*
X93218000Y-84804006D02*
X86137994Y-84804006D01*
X78834990Y-92107010D02*
X77978000Y-92107010D01*
X86137994Y-84804006D02*
X78834990Y-92107010D01*
%TO.N,Net-(R1-Pad2)*%
X98298000Y-75692000D02*
X98298000Y-84582000D01*
X92456000Y-69850000D02*
X98298000Y-75692000D01*
%TO.N,/D-*%
X87122000Y-63246000D02*
X87122000Y-75692000D01*
%TO.N,/D+*%
X88138000Y-62484000D02*
X88138000Y-74930000D01*
%TD*%
D15*
%TO.N,GND*%
X105108710Y-55464636D02*
X105429710Y-55561551D01*
X105725775Y-55718971D01*
X105985623Y-55930899D01*
X106199358Y-56189260D01*
X106358838Y-56484214D01*
X106457994Y-56804532D01*
X106496250Y-57168512D01*
X106496251Y-90455211D01*
X106460364Y-90821210D01*
X106363448Y-91142212D01*
X106206029Y-91438275D01*
X105994101Y-91698123D01*
X105735742Y-91911856D01*
X105440786Y-92071338D01*
X105120469Y-92170493D01*
X104756479Y-92208750D01*
X79808051Y-92208750D01*
X86452796Y-85564006D01*
X92514289Y-85564006D01*
X92558226Y-85607943D01*
X92727744Y-85721211D01*
X92916102Y-85799232D01*
X93116061Y-85839006D01*
X93319939Y-85839006D01*
X93519898Y-85799232D01*
X93708256Y-85721211D01*
X93877774Y-85607943D01*
X94021937Y-85463780D01*
X94135205Y-85294262D01*
X94213226Y-85105904D01*
X94253000Y-84905945D01*
X94253000Y-84702067D01*
X94213226Y-84502108D01*
X94135205Y-84313750D01*
X94128693Y-84304005D01*
X94135205Y-84294259D01*
X94213226Y-84105901D01*
X94253000Y-83905942D01*
X94253000Y-83702064D01*
X94213226Y-83502105D01*
X94135205Y-83313747D01*
X94128693Y-83304002D01*
X94135205Y-83294256D01*
X94213226Y-83105898D01*
X94253000Y-82905939D01*
X94253000Y-82702061D01*
X94213226Y-82502102D01*
X94135205Y-82313744D01*
X94123349Y-82296000D01*
X94135205Y-82278256D01*
X94213226Y-82089898D01*
X94253000Y-81889939D01*
X94253000Y-81686061D01*
X94213226Y-81486102D01*
X94135205Y-81297744D01*
X94021937Y-81128226D01*
X93877774Y-80984063D01*
X93708256Y-80870795D01*
X93519898Y-80792774D01*
X93319939Y-80753000D01*
X93116061Y-80753000D01*
X92916102Y-80792774D01*
X92727744Y-80870795D01*
X92558226Y-80984063D01*
X92514289Y-81028000D01*
X80832802Y-81028000D01*
X72699804Y-72895003D01*
X72676001Y-72865999D01*
X72560276Y-72771026D01*
X72428247Y-72700454D01*
X72284986Y-72656997D01*
X72173333Y-72646000D01*
X72173322Y-72646000D01*
X72136000Y-72642324D01*
X72098678Y-72646000D01*
X70164802Y-72646000D01*
X68297500Y-70778699D01*
X68297500Y-70494322D01*
X68337500Y-70494322D01*
X68461982Y-70482062D01*
X68581680Y-70445752D01*
X68691994Y-70386787D01*
X68788685Y-70307435D01*
X68868037Y-70210744D01*
X68927002Y-70100430D01*
X68963312Y-69980732D01*
X68975572Y-69856250D01*
X68975572Y-68256250D01*
X68963312Y-68131768D01*
X68927002Y-68012070D01*
X68868037Y-67901756D01*
X68788685Y-67805065D01*
X68691994Y-67725713D01*
X68581680Y-67666748D01*
X68461982Y-67630438D01*
X68337500Y-67618178D01*
X66806623Y-67618178D01*
X68693503Y-65731299D01*
X68722501Y-65707501D01*
X68766819Y-65653499D01*
X68817474Y-65591777D01*
X68888046Y-65459747D01*
X68911322Y-65383015D01*
X68931503Y-65316486D01*
X68942500Y-65204833D01*
X68942500Y-65204824D01*
X68946176Y-65167501D01*
X68943761Y-65142978D01*
X69107799Y-65539001D01*
X69395500Y-65969576D01*
X69761674Y-66335750D01*
X70192249Y-66623451D01*
X70670678Y-66821623D01*
X71178576Y-66922650D01*
X71696424Y-66922650D01*
X72204322Y-66821623D01*
X72682751Y-66623451D01*
X73113326Y-66335750D01*
X73479500Y-65969576D01*
X73703514Y-65634315D01*
X74577501Y-66508303D01*
X74577500Y-67838206D01*
X74422741Y-67941613D01*
X74222863Y-68141491D01*
X74065820Y-68376523D01*
X73957647Y-68637676D01*
X73902500Y-68914915D01*
X73902500Y-69197585D01*
X73957647Y-69474824D01*
X74065820Y-69735977D01*
X74222863Y-69971009D01*
X74422741Y-70170887D01*
X74657773Y-70327930D01*
X74918926Y-70436103D01*
X75196165Y-70491250D01*
X75478835Y-70491250D01*
X75756074Y-70436103D01*
X76017227Y-70327930D01*
X76252259Y-70170887D01*
X76452137Y-69971009D01*
X76609180Y-69735977D01*
X76717353Y-69474824D01*
X76772500Y-69197585D01*
X76772500Y-68914915D01*
X76717353Y-68637676D01*
X76609180Y-68376523D01*
X76452137Y-68141491D01*
X76252259Y-67941613D01*
X76097500Y-67838207D01*
X76097500Y-66230825D01*
X76101176Y-66193500D01*
X76097500Y-66156175D01*
X76097500Y-66156167D01*
X76086503Y-66044514D01*
X76043046Y-65901253D01*
X75972474Y-65769224D01*
X75877501Y-65653499D01*
X75848503Y-65629701D01*
X75840426Y-65621624D01*
X76084079Y-65722548D01*
X76371152Y-65779650D01*
X76663848Y-65779650D01*
X76950921Y-65722548D01*
X77221338Y-65610538D01*
X77464706Y-65447924D01*
X77671674Y-65240956D01*
X77834288Y-64997588D01*
X77946298Y-64727171D01*
X78003400Y-64440098D01*
X78003400Y-64147402D01*
X77946298Y-63860329D01*
X77834288Y-63589912D01*
X77671674Y-63346544D01*
X77469191Y-63144061D01*
X86087000Y-63144061D01*
X86087000Y-63347939D01*
X86126774Y-63547898D01*
X86204795Y-63736256D01*
X86318063Y-63905774D01*
X86362000Y-63949711D01*
X86362001Y-74988288D01*
X86318063Y-75032226D01*
X86204795Y-75201744D01*
X86126774Y-75390102D01*
X86087000Y-75590061D01*
X86087000Y-75793939D01*
X86126774Y-75993898D01*
X86204795Y-76182256D01*
X86318063Y-76351774D01*
X86462226Y-76495937D01*
X86631744Y-76609205D01*
X86820102Y-76687226D01*
X87020061Y-76727000D01*
X87223939Y-76727000D01*
X87423898Y-76687226D01*
X87612256Y-76609205D01*
X87781774Y-76495937D01*
X87925937Y-76351774D01*
X88039205Y-76182256D01*
X88117226Y-75993898D01*
X88122974Y-75965000D01*
X88239939Y-75965000D01*
X88439898Y-75925226D01*
X88628256Y-75847205D01*
X88797774Y-75733937D01*
X88941937Y-75589774D01*
X89055205Y-75420256D01*
X89133226Y-75231898D01*
X89173000Y-75031939D01*
X89173000Y-74828061D01*
X89133226Y-74628102D01*
X89055205Y-74439744D01*
X88941937Y-74270226D01*
X88898000Y-74226289D01*
X88898000Y-69748061D01*
X91421000Y-69748061D01*
X91421000Y-69951939D01*
X91460774Y-70151898D01*
X91538795Y-70340256D01*
X91652063Y-70509774D01*
X91796226Y-70653937D01*
X91965744Y-70767205D01*
X92154102Y-70845226D01*
X92354061Y-70885000D01*
X92416199Y-70885000D01*
X97538000Y-76006802D01*
X97538001Y-83878288D01*
X97494063Y-83922226D01*
X97380795Y-84091744D01*
X97302774Y-84280102D01*
X97263000Y-84480061D01*
X97263000Y-84683939D01*
X97302774Y-84883898D01*
X97380795Y-85072256D01*
X97494063Y-85241774D01*
X97638226Y-85385937D01*
X97807744Y-85499205D01*
X97996102Y-85577226D01*
X98196061Y-85617000D01*
X98399939Y-85617000D01*
X98599898Y-85577226D01*
X98788256Y-85499205D01*
X98957774Y-85385937D01*
X99101937Y-85241774D01*
X99215205Y-85072256D01*
X99293226Y-84883898D01*
X99333000Y-84683939D01*
X99333000Y-84480061D01*
X99293226Y-84280102D01*
X99215205Y-84091744D01*
X99101937Y-83922226D01*
X99058000Y-83878289D01*
X99058000Y-75729325D01*
X99061676Y-75692000D01*
X99058000Y-75654675D01*
X99058000Y-75654667D01*
X99047003Y-75543014D01*
X99003546Y-75399753D01*
X98932974Y-75267724D01*
X98838001Y-75151999D01*
X98809004Y-75128202D01*
X93491000Y-69810199D01*
X93491000Y-69748061D01*
X93451226Y-69548102D01*
X93373205Y-69359744D01*
X93259937Y-69190226D01*
X93115774Y-69046063D01*
X92946256Y-68932795D01*
X92757898Y-68854774D01*
X92557939Y-68815000D01*
X92354061Y-68815000D01*
X92154102Y-68854774D01*
X91965744Y-68932795D01*
X91796226Y-69046063D01*
X91652063Y-69190226D01*
X91538795Y-69359744D01*
X91460774Y-69548102D01*
X91421000Y-69748061D01*
X88898000Y-69748061D01*
X88898000Y-63187711D01*
X88941937Y-63143774D01*
X89055205Y-62974256D01*
X89133226Y-62785898D01*
X89173000Y-62585939D01*
X89173000Y-62382061D01*
X89133226Y-62182102D01*
X89055205Y-61993744D01*
X88941937Y-61824226D01*
X88797774Y-61680063D01*
X88628256Y-61566795D01*
X88439898Y-61488774D01*
X88239939Y-61449000D01*
X88036061Y-61449000D01*
X87836102Y-61488774D01*
X87647744Y-61566795D01*
X87478226Y-61680063D01*
X87334063Y-61824226D01*
X87220795Y-61993744D01*
X87142774Y-62182102D01*
X87137026Y-62211000D01*
X87020061Y-62211000D01*
X86820102Y-62250774D01*
X86631744Y-62328795D01*
X86462226Y-62442063D01*
X86318063Y-62586226D01*
X86204795Y-62755744D01*
X86126774Y-62944102D01*
X86087000Y-63144061D01*
X77469191Y-63144061D01*
X77464706Y-63139576D01*
X77221338Y-62976962D01*
X76950921Y-62864952D01*
X76663848Y-62807850D01*
X76371152Y-62807850D01*
X76084079Y-62864952D01*
X75813662Y-62976962D01*
X75570294Y-63139576D01*
X75363326Y-63346544D01*
X75200712Y-63589912D01*
X75088702Y-63860329D01*
X75031600Y-64147402D01*
X75031600Y-64440098D01*
X75088702Y-64727171D01*
X75189626Y-64970825D01*
X74928000Y-64709199D01*
X74928000Y-61402084D01*
X75182925Y-61220415D01*
X75351066Y-61041831D01*
X79342540Y-61041831D01*
X79342540Y-61245709D01*
X79382314Y-61445668D01*
X79460335Y-61634026D01*
X79573603Y-61803544D01*
X79717766Y-61947707D01*
X79887284Y-62060975D01*
X80075642Y-62138996D01*
X80275601Y-62178770D01*
X80479479Y-62178770D01*
X80679438Y-62138996D01*
X80867796Y-62060975D01*
X81037314Y-61947707D01*
X81181477Y-61803544D01*
X81294745Y-61634026D01*
X81372766Y-61445668D01*
X81375654Y-61431147D01*
X82610803Y-60196000D01*
X90386678Y-60196000D01*
X90424000Y-60199676D01*
X90461322Y-60196000D01*
X90461333Y-60196000D01*
X90572986Y-60185003D01*
X90716247Y-60141546D01*
X90848276Y-60070974D01*
X90964001Y-59976001D01*
X90987804Y-59946998D01*
X91479802Y-59455000D01*
X91541939Y-59455000D01*
X91741898Y-59415226D01*
X91930256Y-59337205D01*
X92099774Y-59223937D01*
X92243937Y-59079774D01*
X92357205Y-58910256D01*
X92435226Y-58721898D01*
X92475000Y-58521939D01*
X92475000Y-58318061D01*
X92435226Y-58118102D01*
X92357205Y-57929744D01*
X92243937Y-57760226D01*
X92099774Y-57616063D01*
X91930256Y-57502795D01*
X91741898Y-57424774D01*
X91541939Y-57385000D01*
X91338061Y-57385000D01*
X91138102Y-57424774D01*
X90949744Y-57502795D01*
X90780226Y-57616063D01*
X90636063Y-57760226D01*
X90522795Y-57929744D01*
X90444774Y-58118102D01*
X90405000Y-58318061D01*
X90405000Y-58380198D01*
X90109199Y-58676000D01*
X82333322Y-58676000D01*
X82295999Y-58672324D01*
X82258676Y-58676000D01*
X82258667Y-58676000D01*
X82147014Y-58686997D01*
X82003753Y-58730454D01*
X81871724Y-58801026D01*
X81871722Y-58801027D01*
X81871723Y-58801027D01*
X81784996Y-58872201D01*
X81784992Y-58872205D01*
X81755999Y-58895999D01*
X81732205Y-58924992D01*
X80536989Y-60120209D01*
X80479479Y-60108770D01*
X80275601Y-60108770D01*
X80075642Y-60148544D01*
X79887284Y-60226565D01*
X79717766Y-60339833D01*
X79573603Y-60483996D01*
X79460335Y-60653514D01*
X79382314Y-60841872D01*
X79342540Y-61041831D01*
X75351066Y-61041831D01*
X75437459Y-60950073D01*
X75634363Y-60635267D01*
X75766066Y-60288097D01*
X75812113Y-60013666D01*
X75864156Y-59250246D01*
X75855779Y-58972105D01*
X75772410Y-58610273D01*
X75620052Y-58271658D01*
X75404561Y-57969273D01*
X75134219Y-57714739D01*
X74819413Y-57517836D01*
X74472243Y-57386132D01*
X74106050Y-57324689D01*
X73734907Y-57335867D01*
X73373075Y-57419236D01*
X73034460Y-57571594D01*
X72732075Y-57787085D01*
X72477541Y-58057427D01*
X72280637Y-58372233D01*
X72148934Y-58719403D01*
X72102887Y-58993834D01*
X72050844Y-59757255D01*
X72059221Y-60035395D01*
X72142590Y-60397227D01*
X72294948Y-60735842D01*
X72510439Y-61038227D01*
X72780781Y-61292761D01*
X73095587Y-61489665D01*
X73408001Y-61608183D01*
X73408000Y-62546424D01*
X73113326Y-62251750D01*
X72682751Y-61964049D01*
X72204322Y-61765877D01*
X71696424Y-61664850D01*
X71178576Y-61664850D01*
X70670678Y-61765877D01*
X70192249Y-61964049D01*
X69761674Y-62251750D01*
X69395500Y-62617924D01*
X69107799Y-63048499D01*
X68942500Y-63447566D01*
X68942500Y-63035617D01*
X68946282Y-63032373D01*
X69118078Y-62813470D01*
X70426506Y-60759650D01*
X70552296Y-60511438D01*
X70652305Y-60153847D01*
X70680631Y-59783616D01*
X70636183Y-59414973D01*
X70520671Y-59062086D01*
X70338534Y-58738513D01*
X70096770Y-58456692D01*
X69804671Y-58227451D01*
X69473463Y-58059601D01*
X69115873Y-57959592D01*
X68745641Y-57931267D01*
X68376999Y-57975714D01*
X68024111Y-58091226D01*
X67700539Y-58273363D01*
X67418718Y-58515127D01*
X67246922Y-58734030D01*
X66947500Y-59204028D01*
X66947500Y-58135500D01*
X66896111Y-57867740D01*
X66793472Y-57615151D01*
X66643528Y-57387439D01*
X66452040Y-57193355D01*
X66226368Y-57040358D01*
X65975184Y-56934327D01*
X65903685Y-56920182D01*
X65689500Y-57042844D01*
X65689500Y-59385500D01*
X65709500Y-59385500D01*
X65709500Y-59639500D01*
X65689500Y-59639500D01*
X65689500Y-61696819D01*
X65684369Y-61763885D01*
X65689500Y-61806440D01*
X65689500Y-61982156D01*
X65712258Y-61995189D01*
X65728817Y-62132527D01*
X65844328Y-62485414D01*
X66026466Y-62808987D01*
X66052554Y-62839397D01*
X65924079Y-62864952D01*
X65653662Y-62976962D01*
X65410294Y-63139576D01*
X65203326Y-63346544D01*
X65040712Y-63589912D01*
X64928702Y-63860329D01*
X64871600Y-64147402D01*
X64871600Y-64440098D01*
X64928702Y-64727171D01*
X65040712Y-64997588D01*
X65203326Y-65240956D01*
X65410294Y-65447924D01*
X65653662Y-65610538D01*
X65924079Y-65722548D01*
X66211152Y-65779650D01*
X66495548Y-65779650D01*
X65021003Y-67254196D01*
X64991999Y-67277999D01*
X64944010Y-67336474D01*
X64897026Y-67393724D01*
X64866677Y-67450503D01*
X64826454Y-67525754D01*
X64782997Y-67669015D01*
X64772000Y-67780668D01*
X64772000Y-67780678D01*
X64768324Y-67818000D01*
X64772000Y-67855322D01*
X64772001Y-77135918D01*
X64768324Y-77173250D01*
X64782998Y-77322235D01*
X64826454Y-77465496D01*
X64897026Y-77597526D01*
X64948522Y-77660273D01*
X64992000Y-77713251D01*
X65020998Y-77737049D01*
X66398980Y-79115032D01*
X65938493Y-79837851D01*
X65812704Y-80086064D01*
X65712694Y-80443654D01*
X65684369Y-80813885D01*
X65728817Y-81182527D01*
X65844328Y-81535414D01*
X66026466Y-81858987D01*
X66052554Y-81889397D01*
X65924079Y-81914952D01*
X65653662Y-82026962D01*
X65410294Y-82189576D01*
X65203326Y-82396544D01*
X65040712Y-82639912D01*
X64928702Y-82910329D01*
X64871600Y-83197402D01*
X64871600Y-83490098D01*
X64928702Y-83777171D01*
X65040712Y-84047588D01*
X65203326Y-84290956D01*
X65410294Y-84497924D01*
X65653662Y-84660538D01*
X65924079Y-84772548D01*
X66211152Y-84829650D01*
X66503848Y-84829650D01*
X66790921Y-84772548D01*
X67061338Y-84660538D01*
X67304706Y-84497924D01*
X67511674Y-84290956D01*
X67674288Y-84047588D01*
X67786298Y-83777171D01*
X67843400Y-83490098D01*
X67843400Y-83197402D01*
X67786298Y-82910329D01*
X67682059Y-82658674D01*
X67988000Y-82621786D01*
X68340887Y-82506275D01*
X68664460Y-82324137D01*
X68946282Y-82082373D01*
X69118078Y-81863470D01*
X70426506Y-79809650D01*
X70552296Y-79561438D01*
X70652305Y-79203847D01*
X70680631Y-78833616D01*
X70636183Y-78464973D01*
X70520671Y-78112086D01*
X70338534Y-77788513D01*
X70096770Y-77506692D01*
X69804671Y-77277451D01*
X69473463Y-77109601D01*
X69115873Y-77009592D01*
X68745641Y-76981267D01*
X68376999Y-77025714D01*
X68024111Y-77141226D01*
X67700539Y-77323363D01*
X67418718Y-77565127D01*
X67246922Y-77784030D01*
X67235504Y-77801953D01*
X66292000Y-76858449D01*
X66292000Y-70312101D01*
X66383006Y-70386787D01*
X66493320Y-70445752D01*
X66613018Y-70482062D01*
X66737500Y-70494322D01*
X66777500Y-70494322D01*
X66777500Y-71056177D01*
X66773824Y-71093500D01*
X66777500Y-71130822D01*
X66777500Y-71130832D01*
X66788497Y-71242485D01*
X66797469Y-71272061D01*
X66831954Y-71385746D01*
X66902526Y-71517776D01*
X66942371Y-71566326D01*
X66997499Y-71633501D01*
X67026503Y-71657304D01*
X69286200Y-73917002D01*
X69309999Y-73946001D01*
X69425724Y-74040974D01*
X69557753Y-74111546D01*
X69701014Y-74155003D01*
X69812667Y-74166000D01*
X69812677Y-74166000D01*
X69850000Y-74169676D01*
X69887323Y-74166000D01*
X71821199Y-74166000D01*
X74032114Y-76376916D01*
X73734907Y-76385867D01*
X73373075Y-76469236D01*
X73034460Y-76621594D01*
X72732075Y-76837085D01*
X72477541Y-77107427D01*
X72280637Y-77422233D01*
X72148934Y-77769403D01*
X72102887Y-78043834D01*
X72050844Y-78807255D01*
X72059221Y-79085395D01*
X72142590Y-79447227D01*
X72294948Y-79785842D01*
X72510439Y-80088227D01*
X72780781Y-80342761D01*
X73095587Y-80539665D01*
X73408001Y-80658183D01*
X73408001Y-81596425D01*
X73113326Y-81301750D01*
X72682751Y-81014049D01*
X72204322Y-80815877D01*
X71696424Y-80714850D01*
X71178576Y-80714850D01*
X70670678Y-80815877D01*
X70192249Y-81014049D01*
X69761674Y-81301750D01*
X69395500Y-81667924D01*
X69107799Y-82098499D01*
X68909627Y-82576928D01*
X68808600Y-83084826D01*
X68808600Y-83602674D01*
X68909627Y-84110572D01*
X69107799Y-84589001D01*
X69395500Y-85019576D01*
X69761674Y-85385750D01*
X70192249Y-85673451D01*
X70670678Y-85871623D01*
X71178576Y-85972650D01*
X71696424Y-85972650D01*
X72204322Y-85871623D01*
X72682751Y-85673451D01*
X73113326Y-85385750D01*
X73441129Y-85057947D01*
X73445470Y-85072256D01*
X73462454Y-85128246D01*
X73533026Y-85260276D01*
X73560918Y-85294262D01*
X73627999Y-85376001D01*
X73657003Y-85399804D01*
X74577501Y-86320303D01*
X74577501Y-86888206D01*
X74422741Y-86991613D01*
X74222863Y-87191491D01*
X74065820Y-87426523D01*
X73957647Y-87687676D01*
X73902500Y-87964915D01*
X73902500Y-88247585D01*
X73957647Y-88524824D01*
X74065820Y-88785977D01*
X74222863Y-89021009D01*
X74422741Y-89220887D01*
X74657773Y-89377930D01*
X74918926Y-89486103D01*
X75196165Y-89541250D01*
X75478835Y-89541250D01*
X75756074Y-89486103D01*
X76017227Y-89377930D01*
X76252259Y-89220887D01*
X76452137Y-89021009D01*
X76609180Y-88785977D01*
X76717353Y-88524824D01*
X76772500Y-88247585D01*
X76772500Y-87964915D01*
X76717353Y-87687676D01*
X76609180Y-87426523D01*
X76452137Y-87191491D01*
X76252259Y-86991613D01*
X76097500Y-86888207D01*
X76097500Y-86042825D01*
X76101176Y-86005500D01*
X76097500Y-85968175D01*
X76097500Y-85968167D01*
X76086503Y-85856514D01*
X76043046Y-85713253D01*
X75972474Y-85581224D01*
X75877501Y-85465499D01*
X75848503Y-85441701D01*
X74928000Y-84521199D01*
X74928000Y-83197402D01*
X75031600Y-83197402D01*
X75031600Y-83490098D01*
X75088702Y-83777171D01*
X75200712Y-84047588D01*
X75363326Y-84290956D01*
X75570294Y-84497924D01*
X75813662Y-84660538D01*
X76084079Y-84772548D01*
X76371152Y-84829650D01*
X76663848Y-84829650D01*
X76950921Y-84772548D01*
X77221338Y-84660538D01*
X77464706Y-84497924D01*
X77671674Y-84290956D01*
X77834288Y-84047588D01*
X77946298Y-83777171D01*
X78003400Y-83490098D01*
X78003400Y-83197402D01*
X77946298Y-82910329D01*
X77834288Y-82639912D01*
X77671674Y-82396544D01*
X77464706Y-82189576D01*
X77221338Y-82026962D01*
X76950921Y-81914952D01*
X76663848Y-81857850D01*
X76371152Y-81857850D01*
X76084079Y-81914952D01*
X75813662Y-82026962D01*
X75570294Y-82189576D01*
X75363326Y-82396544D01*
X75200712Y-82639912D01*
X75088702Y-82910329D01*
X75031600Y-83197402D01*
X74928000Y-83197402D01*
X74928000Y-80452084D01*
X75182925Y-80270415D01*
X75437459Y-80000073D01*
X75634363Y-79685267D01*
X75766066Y-79338097D01*
X75812113Y-79063666D01*
X75864156Y-78300246D01*
X75861321Y-78206123D01*
X79954201Y-82299003D01*
X79977999Y-82328001D01*
X80006997Y-82351799D01*
X80093723Y-82422974D01*
X80225753Y-82493546D01*
X80369014Y-82537003D01*
X80480667Y-82548000D01*
X80480676Y-82548000D01*
X80517999Y-82551676D01*
X80555322Y-82548000D01*
X85287198Y-82548000D01*
X77663199Y-90172000D01*
X69656803Y-90172000D01*
X68812824Y-89328022D01*
X68868037Y-89260744D01*
X68927002Y-89150430D01*
X68963312Y-89030732D01*
X68975572Y-88906250D01*
X68975572Y-87306250D01*
X68963312Y-87181768D01*
X68927002Y-87062070D01*
X68868037Y-86951756D01*
X68788685Y-86855065D01*
X68691994Y-86775713D01*
X68581680Y-86716748D01*
X68461982Y-86680438D01*
X68337500Y-86668178D01*
X66737500Y-86668178D01*
X66613018Y-86680438D01*
X66493320Y-86716748D01*
X66383006Y-86775713D01*
X66286315Y-86855065D01*
X66206963Y-86951756D01*
X66147998Y-87062070D01*
X66111688Y-87181768D01*
X66099428Y-87306250D01*
X66099428Y-88906250D01*
X66111688Y-89030732D01*
X66147998Y-89150430D01*
X66206963Y-89260744D01*
X66286315Y-89357435D01*
X66383006Y-89436787D01*
X66493320Y-89495752D01*
X66613018Y-89532062D01*
X66737500Y-89544322D01*
X66898542Y-89544322D01*
X66902526Y-89551776D01*
X66942371Y-89600326D01*
X66997499Y-89667501D01*
X67026502Y-89691303D01*
X67957208Y-90622010D01*
X55882812Y-90622010D01*
X49892500Y-84631699D01*
X49892500Y-84189934D01*
X50057799Y-84589001D01*
X50345500Y-85019576D01*
X50711674Y-85385750D01*
X51142249Y-85673451D01*
X51620678Y-85871623D01*
X52128576Y-85972650D01*
X52646424Y-85972650D01*
X53154322Y-85871623D01*
X53632751Y-85673451D01*
X54063326Y-85385750D01*
X54429500Y-85019576D01*
X54612000Y-84746445D01*
X54612000Y-84798677D01*
X54608324Y-84836000D01*
X54612000Y-84873322D01*
X54612000Y-84873332D01*
X54622997Y-84984985D01*
X54649470Y-85072256D01*
X54666454Y-85128246D01*
X54737026Y-85260276D01*
X54764918Y-85294262D01*
X54831999Y-85376001D01*
X54861002Y-85399803D01*
X55527501Y-86066303D01*
X55527501Y-86888206D01*
X55372741Y-86991613D01*
X55172863Y-87191491D01*
X55015820Y-87426523D01*
X54907647Y-87687676D01*
X54852500Y-87964915D01*
X54852500Y-88247585D01*
X54907647Y-88524824D01*
X55015820Y-88785977D01*
X55172863Y-89021009D01*
X55372741Y-89220887D01*
X55607773Y-89377930D01*
X55868926Y-89486103D01*
X56146165Y-89541250D01*
X56428835Y-89541250D01*
X56706074Y-89486103D01*
X56967227Y-89377930D01*
X57202259Y-89220887D01*
X57402137Y-89021009D01*
X57559180Y-88785977D01*
X57667353Y-88524824D01*
X57722500Y-88247585D01*
X57722500Y-87964915D01*
X57667353Y-87687676D01*
X57559180Y-87426523D01*
X57402137Y-87191491D01*
X57202259Y-86991613D01*
X57047500Y-86888207D01*
X57047500Y-85788833D01*
X57051177Y-85751500D01*
X57036503Y-85602514D01*
X56993046Y-85459253D01*
X56922474Y-85327224D01*
X56851299Y-85240497D01*
X56827501Y-85211499D01*
X56798503Y-85187701D01*
X56132000Y-84521199D01*
X56132000Y-84002413D01*
X56150712Y-84047588D01*
X56313326Y-84290956D01*
X56520294Y-84497924D01*
X56763662Y-84660538D01*
X57034079Y-84772548D01*
X57321152Y-84829650D01*
X57613848Y-84829650D01*
X57900921Y-84772548D01*
X58171338Y-84660538D01*
X58414706Y-84497924D01*
X58621674Y-84290956D01*
X58784288Y-84047588D01*
X58896298Y-83777171D01*
X58953400Y-83490098D01*
X58953400Y-83197402D01*
X58896298Y-82910329D01*
X58784288Y-82639912D01*
X58621674Y-82396544D01*
X58414706Y-82189576D01*
X58171338Y-82026962D01*
X57900921Y-81914952D01*
X57613848Y-81857850D01*
X57321152Y-81857850D01*
X57034079Y-81914952D01*
X56763662Y-82026962D01*
X56520294Y-82189576D01*
X56313326Y-82396544D01*
X56150712Y-82639912D01*
X56132000Y-82685087D01*
X56132000Y-80271074D01*
X56132925Y-80270415D01*
X56387459Y-80000073D01*
X56584363Y-79685267D01*
X56716066Y-79338097D01*
X56762113Y-79063666D01*
X56814156Y-78300246D01*
X56805779Y-78022105D01*
X56722410Y-77660273D01*
X56570052Y-77321658D01*
X56354561Y-77019273D01*
X56084219Y-76764739D01*
X55769413Y-76567836D01*
X55422243Y-76436132D01*
X55056050Y-76374689D01*
X54684907Y-76385867D01*
X54323075Y-76469236D01*
X53984460Y-76621594D01*
X53682075Y-76837085D01*
X53427541Y-77107427D01*
X53230637Y-77422233D01*
X53098934Y-77769403D01*
X53052887Y-78043834D01*
X53000844Y-78807255D01*
X53009221Y-79085395D01*
X53092590Y-79447227D01*
X53244948Y-79785842D01*
X53460439Y-80088227D01*
X53730781Y-80342761D01*
X54045587Y-80539665D01*
X54392757Y-80671368D01*
X54612001Y-80708155D01*
X54612000Y-81941055D01*
X54429500Y-81667924D01*
X54063326Y-81301750D01*
X53632751Y-81014049D01*
X53154322Y-80815877D01*
X52646424Y-80714850D01*
X52128576Y-80714850D01*
X51620678Y-80815877D01*
X51142249Y-81014049D01*
X50711674Y-81301750D01*
X50345500Y-81667924D01*
X50057799Y-82098499D01*
X49892500Y-82497566D01*
X49892500Y-82085617D01*
X49896282Y-82082373D01*
X50068078Y-81863470D01*
X51376506Y-79809650D01*
X51502296Y-79561438D01*
X51602305Y-79203847D01*
X51630631Y-78833616D01*
X51586183Y-78464973D01*
X51470671Y-78112086D01*
X51288534Y-77788513D01*
X51046770Y-77506692D01*
X50754671Y-77277451D01*
X50423463Y-77109601D01*
X50065873Y-77009592D01*
X49695641Y-76981267D01*
X49326999Y-77025714D01*
X48974111Y-77141226D01*
X48650539Y-77323363D01*
X48368718Y-77565127D01*
X48196922Y-77784030D01*
X48185504Y-77801953D01*
X47496000Y-77112449D01*
X47496000Y-71272061D01*
X58147000Y-71272061D01*
X58147000Y-71475939D01*
X58186774Y-71675898D01*
X58264795Y-71864256D01*
X58378063Y-72033774D01*
X58522226Y-72177937D01*
X58691744Y-72291205D01*
X58880102Y-72369226D01*
X59080061Y-72409000D01*
X59283939Y-72409000D01*
X59483898Y-72369226D01*
X59672256Y-72291205D01*
X59841774Y-72177937D01*
X59885711Y-72134000D01*
X62288289Y-72134000D01*
X62332226Y-72177937D01*
X62501744Y-72291205D01*
X62690102Y-72369226D01*
X62890061Y-72409000D01*
X63093939Y-72409000D01*
X63293898Y-72369226D01*
X63482256Y-72291205D01*
X63651774Y-72177937D01*
X63795937Y-72033774D01*
X63909205Y-71864256D01*
X63987226Y-71675898D01*
X64027000Y-71475939D01*
X64027000Y-71272061D01*
X63987226Y-71072102D01*
X63909205Y-70883744D01*
X63795937Y-70714226D01*
X63651774Y-70570063D01*
X63482256Y-70456795D01*
X63293898Y-70378774D01*
X63093939Y-70339000D01*
X62890061Y-70339000D01*
X62690102Y-70378774D01*
X62501744Y-70456795D01*
X62332226Y-70570063D01*
X62288289Y-70614000D01*
X59885711Y-70614000D01*
X59841774Y-70570063D01*
X59672256Y-70456795D01*
X59483898Y-70378774D01*
X59283939Y-70339000D01*
X59080061Y-70339000D01*
X58880102Y-70378774D01*
X58691744Y-70456795D01*
X58522226Y-70570063D01*
X58378063Y-70714226D01*
X58264795Y-70883744D01*
X58186774Y-71072102D01*
X58147000Y-71272061D01*
X47496000Y-71272061D01*
X47496000Y-70461732D01*
X47563018Y-70482062D01*
X47687500Y-70494322D01*
X49287500Y-70494322D01*
X49411982Y-70482062D01*
X49531680Y-70445752D01*
X49641994Y-70386787D01*
X49738685Y-70307435D01*
X49818037Y-70210744D01*
X49877002Y-70100430D01*
X49913312Y-69980732D01*
X49925572Y-69856250D01*
X49925572Y-68256250D01*
X49913312Y-68131768D01*
X49877002Y-68012070D01*
X49818037Y-67901756D01*
X49738685Y-67805065D01*
X49641994Y-67725713D01*
X49531680Y-67666748D01*
X49411982Y-67630438D01*
X49287500Y-67618178D01*
X48010623Y-67618178D01*
X49643503Y-65985299D01*
X49672501Y-65961501D01*
X49767474Y-65845776D01*
X49838046Y-65713747D01*
X49881503Y-65570486D01*
X49892500Y-65458833D01*
X49892500Y-65458823D01*
X49896176Y-65421500D01*
X49892500Y-65384177D01*
X49892500Y-65139934D01*
X50057799Y-65539001D01*
X50345500Y-65969576D01*
X50711674Y-66335750D01*
X51142249Y-66623451D01*
X51620678Y-66821623D01*
X52128576Y-66922650D01*
X52646424Y-66922650D01*
X53154322Y-66821623D01*
X53632751Y-66623451D01*
X54063326Y-66335750D01*
X54429500Y-65969576D01*
X54463187Y-65919160D01*
X54483026Y-65956276D01*
X54515589Y-65995954D01*
X54577999Y-66072001D01*
X54607003Y-66095804D01*
X55527500Y-67016302D01*
X55527500Y-67838206D01*
X55372741Y-67941613D01*
X55172863Y-68141491D01*
X55015820Y-68376523D01*
X54907647Y-68637676D01*
X54852500Y-68914915D01*
X54852500Y-69197585D01*
X54907647Y-69474824D01*
X55015820Y-69735977D01*
X55172863Y-69971009D01*
X55372741Y-70170887D01*
X55607773Y-70327930D01*
X55868926Y-70436103D01*
X56146165Y-70491250D01*
X56428835Y-70491250D01*
X56706074Y-70436103D01*
X56967227Y-70327930D01*
X57202259Y-70170887D01*
X57402137Y-69971009D01*
X57559180Y-69735977D01*
X57667353Y-69474824D01*
X57722500Y-69197585D01*
X57722500Y-68914915D01*
X57667353Y-68637676D01*
X57559180Y-68376523D01*
X57402137Y-68141491D01*
X57202259Y-67941613D01*
X57047500Y-67838207D01*
X57047500Y-66738825D01*
X57051176Y-66701500D01*
X57047500Y-66664175D01*
X57047500Y-66664167D01*
X57036503Y-66552514D01*
X56993046Y-66409253D01*
X56922474Y-66277224D01*
X56827501Y-66161499D01*
X56798504Y-66137702D01*
X55878000Y-65217199D01*
X55878000Y-64147402D01*
X55981600Y-64147402D01*
X55981600Y-64440098D01*
X56038702Y-64727171D01*
X56150712Y-64997588D01*
X56313326Y-65240956D01*
X56520294Y-65447924D01*
X56763662Y-65610538D01*
X57034079Y-65722548D01*
X57321152Y-65779650D01*
X57613848Y-65779650D01*
X57900921Y-65722548D01*
X58171338Y-65610538D01*
X58414706Y-65447924D01*
X58621674Y-65240956D01*
X58784288Y-64997588D01*
X58896298Y-64727171D01*
X58953400Y-64440098D01*
X58953400Y-64147402D01*
X58896298Y-63860329D01*
X58784288Y-63589912D01*
X58621674Y-63346544D01*
X58414706Y-63139576D01*
X58171338Y-62976962D01*
X57900921Y-62864952D01*
X57613848Y-62807850D01*
X57321152Y-62807850D01*
X57034079Y-62864952D01*
X56763662Y-62976962D01*
X56520294Y-63139576D01*
X56313326Y-63346544D01*
X56150712Y-63589912D01*
X56038702Y-63860329D01*
X55981600Y-64147402D01*
X55878000Y-64147402D01*
X55878000Y-61402084D01*
X56132925Y-61220415D01*
X56387459Y-60950073D01*
X56584363Y-60635267D01*
X56716066Y-60288097D01*
X56762113Y-60013666D01*
X56787620Y-59639500D01*
X56877500Y-59639500D01*
X56877500Y-60889500D01*
X56928889Y-61157260D01*
X57031528Y-61409849D01*
X57181472Y-61637561D01*
X57372960Y-61831645D01*
X57598632Y-61984642D01*
X57849816Y-62090673D01*
X57921315Y-62104818D01*
X58135500Y-61982156D01*
X58135500Y-59639500D01*
X58389500Y-59639500D01*
X58389500Y-61982156D01*
X58603685Y-62104818D01*
X58675184Y-62090673D01*
X58926368Y-61984642D01*
X59152040Y-61831645D01*
X59343528Y-61637561D01*
X59493472Y-61409849D01*
X59596111Y-61157260D01*
X59647500Y-60889500D01*
X59647500Y-59639500D01*
X64177500Y-59639500D01*
X64177500Y-60889500D01*
X64228889Y-61157260D01*
X64331528Y-61409849D01*
X64481472Y-61637561D01*
X64672960Y-61831645D01*
X64898632Y-61984642D01*
X65149816Y-62090673D01*
X65221315Y-62104818D01*
X65435500Y-61982156D01*
X65435500Y-59639500D01*
X64177500Y-59639500D01*
X59647500Y-59639500D01*
X58389500Y-59639500D01*
X58135500Y-59639500D01*
X56877500Y-59639500D01*
X56787620Y-59639500D01*
X56814156Y-59250246D01*
X56805779Y-58972105D01*
X56722410Y-58610273D01*
X56570052Y-58271658D01*
X56473021Y-58135500D01*
X56877500Y-58135500D01*
X56877500Y-59385500D01*
X58135500Y-59385500D01*
X58135500Y-57042844D01*
X58389500Y-57042844D01*
X58389500Y-59385500D01*
X59647500Y-59385500D01*
X59647500Y-58135500D01*
X64177500Y-58135500D01*
X64177500Y-59385500D01*
X65435500Y-59385500D01*
X65435500Y-57042844D01*
X65221315Y-56920182D01*
X65149816Y-56934327D01*
X64898632Y-57040358D01*
X64672960Y-57193355D01*
X64481472Y-57387439D01*
X64331528Y-57615151D01*
X64228889Y-57867740D01*
X64177500Y-58135500D01*
X59647500Y-58135500D01*
X59596111Y-57867740D01*
X59493472Y-57615151D01*
X59343528Y-57387439D01*
X59152040Y-57193355D01*
X58926368Y-57040358D01*
X58675184Y-56934327D01*
X58603685Y-56920182D01*
X58389500Y-57042844D01*
X58135500Y-57042844D01*
X57921315Y-56920182D01*
X57849816Y-56934327D01*
X57598632Y-57040358D01*
X57372960Y-57193355D01*
X57181472Y-57387439D01*
X57031528Y-57615151D01*
X56928889Y-57867740D01*
X56877500Y-58135500D01*
X56473021Y-58135500D01*
X56354561Y-57969273D01*
X56084219Y-57714739D01*
X55769413Y-57517836D01*
X55422243Y-57386132D01*
X55056050Y-57324689D01*
X54684907Y-57335867D01*
X54323075Y-57419236D01*
X53984460Y-57571594D01*
X53682075Y-57787085D01*
X53427541Y-58057427D01*
X53230637Y-58372233D01*
X53098934Y-58719403D01*
X53052887Y-58993834D01*
X53000844Y-59757255D01*
X53009221Y-60035395D01*
X53092590Y-60397227D01*
X53244948Y-60735842D01*
X53460439Y-61038227D01*
X53730781Y-61292761D01*
X54045587Y-61489665D01*
X54358001Y-61608183D01*
X54358001Y-62546425D01*
X54063326Y-62251750D01*
X53632751Y-61964049D01*
X53154322Y-61765877D01*
X52646424Y-61664850D01*
X52128576Y-61664850D01*
X51620678Y-61765877D01*
X51142249Y-61964049D01*
X50711674Y-62251750D01*
X50345500Y-62617924D01*
X50057799Y-63048499D01*
X49892500Y-63447566D01*
X49892500Y-63035617D01*
X49896282Y-63032373D01*
X50068078Y-62813470D01*
X51376506Y-60759650D01*
X51502296Y-60511438D01*
X51602305Y-60153847D01*
X51630631Y-59783616D01*
X51586183Y-59414973D01*
X51470671Y-59062086D01*
X51288534Y-58738513D01*
X51046770Y-58456692D01*
X50754671Y-58227451D01*
X50423463Y-58059601D01*
X50065873Y-57959592D01*
X49695641Y-57931267D01*
X49326999Y-57975714D01*
X48974111Y-58091226D01*
X48650539Y-58273363D01*
X48368718Y-58515127D01*
X48196922Y-58734030D01*
X46888493Y-60787851D01*
X46762704Y-61036064D01*
X46662694Y-61393654D01*
X46634369Y-61763885D01*
X46678817Y-62132527D01*
X46794328Y-62485414D01*
X46976466Y-62808987D01*
X47002554Y-62839397D01*
X46874079Y-62864952D01*
X46603662Y-62976962D01*
X46360294Y-63139576D01*
X46153326Y-63346544D01*
X45990712Y-63589912D01*
X45878702Y-63860329D01*
X45821600Y-64147402D01*
X45821600Y-64440098D01*
X45878702Y-64727171D01*
X45990712Y-64997588D01*
X46153326Y-65240956D01*
X46360294Y-65447924D01*
X46603662Y-65610538D01*
X46874079Y-65722548D01*
X47161152Y-65779650D01*
X47453848Y-65779650D01*
X47740921Y-65722548D01*
X47767773Y-65711426D01*
X46225003Y-67254196D01*
X46195999Y-67277999D01*
X46148010Y-67336474D01*
X46101026Y-67393724D01*
X46070677Y-67450503D01*
X46030454Y-67525754D01*
X45986997Y-67669015D01*
X45976000Y-67780668D01*
X45976000Y-67780678D01*
X45972324Y-67818000D01*
X45976000Y-67855322D01*
X45976001Y-77389918D01*
X45972324Y-77427250D01*
X45986998Y-77576235D01*
X46030454Y-77719496D01*
X46101026Y-77851526D01*
X46159071Y-77922253D01*
X46196000Y-77967251D01*
X46224998Y-77991049D01*
X47348980Y-79115032D01*
X46888493Y-79837851D01*
X46762704Y-80086064D01*
X46662694Y-80443654D01*
X46634369Y-80813885D01*
X46678817Y-81182527D01*
X46794328Y-81535414D01*
X46976466Y-81858987D01*
X47002554Y-81889397D01*
X46874079Y-81914952D01*
X46603662Y-82026962D01*
X46360294Y-82189576D01*
X46153326Y-82396544D01*
X45990712Y-82639912D01*
X45878702Y-82910329D01*
X45821600Y-83197402D01*
X45821600Y-83490098D01*
X45878702Y-83777171D01*
X45990712Y-84047588D01*
X46153326Y-84290956D01*
X46360294Y-84497924D01*
X46603662Y-84660538D01*
X46874079Y-84772548D01*
X47161152Y-84829650D01*
X47453848Y-84829650D01*
X47740921Y-84772548D01*
X48011338Y-84660538D01*
X48254706Y-84497924D01*
X48372500Y-84380130D01*
X48372500Y-84909177D01*
X48368824Y-84946500D01*
X48372500Y-84983822D01*
X48372500Y-84983832D01*
X48383497Y-85095485D01*
X48418689Y-85211499D01*
X48426954Y-85238746D01*
X48497526Y-85370776D01*
X48537371Y-85419326D01*
X48592499Y-85486501D01*
X48621503Y-85510304D01*
X55004211Y-91893013D01*
X55028009Y-91922011D01*
X55057007Y-91945809D01*
X55143734Y-92016984D01*
X55275763Y-92087556D01*
X55419024Y-92131013D01*
X55568010Y-92145687D01*
X55605343Y-92142010D01*
X76943000Y-92142010D01*
X76943000Y-92208750D01*
X45276029Y-92208750D01*
X44910040Y-92172864D01*
X44589038Y-92075948D01*
X44292975Y-91918529D01*
X44033127Y-91706601D01*
X43819394Y-91448242D01*
X43659912Y-91153286D01*
X43560757Y-90832969D01*
X43522500Y-90468979D01*
X43522500Y-87306250D01*
X47049428Y-87306250D01*
X47049428Y-88906250D01*
X47061688Y-89030732D01*
X47097998Y-89150430D01*
X47156963Y-89260744D01*
X47236315Y-89357435D01*
X47333006Y-89436787D01*
X47443320Y-89495752D01*
X47563018Y-89532062D01*
X47687500Y-89544322D01*
X49287500Y-89544322D01*
X49411982Y-89532062D01*
X49531680Y-89495752D01*
X49641994Y-89436787D01*
X49738685Y-89357435D01*
X49818037Y-89260744D01*
X49877002Y-89150430D01*
X49913312Y-89030732D01*
X49925572Y-88906250D01*
X49925572Y-87306250D01*
X49913312Y-87181768D01*
X49877002Y-87062070D01*
X49818037Y-86951756D01*
X49738685Y-86855065D01*
X49641994Y-86775713D01*
X49531680Y-86716748D01*
X49411982Y-86680438D01*
X49287500Y-86668178D01*
X47687500Y-86668178D01*
X47563018Y-86680438D01*
X47443320Y-86716748D01*
X47333006Y-86775713D01*
X47236315Y-86855065D01*
X47156963Y-86951756D01*
X47097998Y-87062070D01*
X47061688Y-87181768D01*
X47049428Y-87306250D01*
X43522500Y-87306250D01*
X43522500Y-57182279D01*
X43558386Y-56816290D01*
X43655301Y-56495290D01*
X43812721Y-56199225D01*
X44024649Y-55939377D01*
X44283010Y-55725642D01*
X44577964Y-55566162D01*
X44898282Y-55467006D01*
X45262262Y-55428750D01*
X104742721Y-55428750D01*
X105108710Y-55464636D01*
%TA.AperFunction,Conductor*%
D16*
G36*
X105108710Y-55464636D02*
G01*
X105429710Y-55561551D01*
X105725775Y-55718971D01*
X105985623Y-55930899D01*
X106199358Y-56189260D01*
X106358838Y-56484214D01*
X106457994Y-56804532D01*
X106496250Y-57168512D01*
X106496251Y-90455211D01*
X106460364Y-90821210D01*
X106363448Y-91142212D01*
X106206029Y-91438275D01*
X105994101Y-91698123D01*
X105735742Y-91911856D01*
X105440786Y-92071338D01*
X105120469Y-92170493D01*
X104756479Y-92208750D01*
X79808051Y-92208750D01*
X86452796Y-85564006D01*
X92514289Y-85564006D01*
X92558226Y-85607943D01*
X92727744Y-85721211D01*
X92916102Y-85799232D01*
X93116061Y-85839006D01*
X93319939Y-85839006D01*
X93519898Y-85799232D01*
X93708256Y-85721211D01*
X93877774Y-85607943D01*
X94021937Y-85463780D01*
X94135205Y-85294262D01*
X94213226Y-85105904D01*
X94253000Y-84905945D01*
X94253000Y-84702067D01*
X94213226Y-84502108D01*
X94135205Y-84313750D01*
X94128693Y-84304005D01*
X94135205Y-84294259D01*
X94213226Y-84105901D01*
X94253000Y-83905942D01*
X94253000Y-83702064D01*
X94213226Y-83502105D01*
X94135205Y-83313747D01*
X94128693Y-83304002D01*
X94135205Y-83294256D01*
X94213226Y-83105898D01*
X94253000Y-82905939D01*
X94253000Y-82702061D01*
X94213226Y-82502102D01*
X94135205Y-82313744D01*
X94123349Y-82296000D01*
X94135205Y-82278256D01*
X94213226Y-82089898D01*
X94253000Y-81889939D01*
X94253000Y-81686061D01*
X94213226Y-81486102D01*
X94135205Y-81297744D01*
X94021937Y-81128226D01*
X93877774Y-80984063D01*
X93708256Y-80870795D01*
X93519898Y-80792774D01*
X93319939Y-80753000D01*
X93116061Y-80753000D01*
X92916102Y-80792774D01*
X92727744Y-80870795D01*
X92558226Y-80984063D01*
X92514289Y-81028000D01*
X80832802Y-81028000D01*
X72699804Y-72895003D01*
X72676001Y-72865999D01*
X72560276Y-72771026D01*
X72428247Y-72700454D01*
X72284986Y-72656997D01*
X72173333Y-72646000D01*
X72173322Y-72646000D01*
X72136000Y-72642324D01*
X72098678Y-72646000D01*
X70164802Y-72646000D01*
X68297500Y-70778699D01*
X68297500Y-70494322D01*
X68337500Y-70494322D01*
X68461982Y-70482062D01*
X68581680Y-70445752D01*
X68691994Y-70386787D01*
X68788685Y-70307435D01*
X68868037Y-70210744D01*
X68927002Y-70100430D01*
X68963312Y-69980732D01*
X68975572Y-69856250D01*
X68975572Y-68256250D01*
X68963312Y-68131768D01*
X68927002Y-68012070D01*
X68868037Y-67901756D01*
X68788685Y-67805065D01*
X68691994Y-67725713D01*
X68581680Y-67666748D01*
X68461982Y-67630438D01*
X68337500Y-67618178D01*
X66806623Y-67618178D01*
X68693503Y-65731299D01*
X68722501Y-65707501D01*
X68766819Y-65653499D01*
X68817474Y-65591777D01*
X68888046Y-65459747D01*
X68911322Y-65383015D01*
X68931503Y-65316486D01*
X68942500Y-65204833D01*
X68942500Y-65204824D01*
X68946176Y-65167501D01*
X68943761Y-65142978D01*
X69107799Y-65539001D01*
X69395500Y-65969576D01*
X69761674Y-66335750D01*
X70192249Y-66623451D01*
X70670678Y-66821623D01*
X71178576Y-66922650D01*
X71696424Y-66922650D01*
X72204322Y-66821623D01*
X72682751Y-66623451D01*
X73113326Y-66335750D01*
X73479500Y-65969576D01*
X73703514Y-65634315D01*
X74577501Y-66508303D01*
X74577500Y-67838206D01*
X74422741Y-67941613D01*
X74222863Y-68141491D01*
X74065820Y-68376523D01*
X73957647Y-68637676D01*
X73902500Y-68914915D01*
X73902500Y-69197585D01*
X73957647Y-69474824D01*
X74065820Y-69735977D01*
X74222863Y-69971009D01*
X74422741Y-70170887D01*
X74657773Y-70327930D01*
X74918926Y-70436103D01*
X75196165Y-70491250D01*
X75478835Y-70491250D01*
X75756074Y-70436103D01*
X76017227Y-70327930D01*
X76252259Y-70170887D01*
X76452137Y-69971009D01*
X76609180Y-69735977D01*
X76717353Y-69474824D01*
X76772500Y-69197585D01*
X76772500Y-68914915D01*
X76717353Y-68637676D01*
X76609180Y-68376523D01*
X76452137Y-68141491D01*
X76252259Y-67941613D01*
X76097500Y-67838207D01*
X76097500Y-66230825D01*
X76101176Y-66193500D01*
X76097500Y-66156175D01*
X76097500Y-66156167D01*
X76086503Y-66044514D01*
X76043046Y-65901253D01*
X75972474Y-65769224D01*
X75877501Y-65653499D01*
X75848503Y-65629701D01*
X75840426Y-65621624D01*
X76084079Y-65722548D01*
X76371152Y-65779650D01*
X76663848Y-65779650D01*
X76950921Y-65722548D01*
X77221338Y-65610538D01*
X77464706Y-65447924D01*
X77671674Y-65240956D01*
X77834288Y-64997588D01*
X77946298Y-64727171D01*
X78003400Y-64440098D01*
X78003400Y-64147402D01*
X77946298Y-63860329D01*
X77834288Y-63589912D01*
X77671674Y-63346544D01*
X77469191Y-63144061D01*
X86087000Y-63144061D01*
X86087000Y-63347939D01*
X86126774Y-63547898D01*
X86204795Y-63736256D01*
X86318063Y-63905774D01*
X86362000Y-63949711D01*
X86362001Y-74988288D01*
X86318063Y-75032226D01*
X86204795Y-75201744D01*
X86126774Y-75390102D01*
X86087000Y-75590061D01*
X86087000Y-75793939D01*
X86126774Y-75993898D01*
X86204795Y-76182256D01*
X86318063Y-76351774D01*
X86462226Y-76495937D01*
X86631744Y-76609205D01*
X86820102Y-76687226D01*
X87020061Y-76727000D01*
X87223939Y-76727000D01*
X87423898Y-76687226D01*
X87612256Y-76609205D01*
X87781774Y-76495937D01*
X87925937Y-76351774D01*
X88039205Y-76182256D01*
X88117226Y-75993898D01*
X88122974Y-75965000D01*
X88239939Y-75965000D01*
X88439898Y-75925226D01*
X88628256Y-75847205D01*
X88797774Y-75733937D01*
X88941937Y-75589774D01*
X89055205Y-75420256D01*
X89133226Y-75231898D01*
X89173000Y-75031939D01*
X89173000Y-74828061D01*
X89133226Y-74628102D01*
X89055205Y-74439744D01*
X88941937Y-74270226D01*
X88898000Y-74226289D01*
X88898000Y-69748061D01*
X91421000Y-69748061D01*
X91421000Y-69951939D01*
X91460774Y-70151898D01*
X91538795Y-70340256D01*
X91652063Y-70509774D01*
X91796226Y-70653937D01*
X91965744Y-70767205D01*
X92154102Y-70845226D01*
X92354061Y-70885000D01*
X92416199Y-70885000D01*
X97538000Y-76006802D01*
X97538001Y-83878288D01*
X97494063Y-83922226D01*
X97380795Y-84091744D01*
X97302774Y-84280102D01*
X97263000Y-84480061D01*
X97263000Y-84683939D01*
X97302774Y-84883898D01*
X97380795Y-85072256D01*
X97494063Y-85241774D01*
X97638226Y-85385937D01*
X97807744Y-85499205D01*
X97996102Y-85577226D01*
X98196061Y-85617000D01*
X98399939Y-85617000D01*
X98599898Y-85577226D01*
X98788256Y-85499205D01*
X98957774Y-85385937D01*
X99101937Y-85241774D01*
X99215205Y-85072256D01*
X99293226Y-84883898D01*
X99333000Y-84683939D01*
X99333000Y-84480061D01*
X99293226Y-84280102D01*
X99215205Y-84091744D01*
X99101937Y-83922226D01*
X99058000Y-83878289D01*
X99058000Y-75729325D01*
X99061676Y-75692000D01*
X99058000Y-75654675D01*
X99058000Y-75654667D01*
X99047003Y-75543014D01*
X99003546Y-75399753D01*
X98932974Y-75267724D01*
X98838001Y-75151999D01*
X98809004Y-75128202D01*
X93491000Y-69810199D01*
X93491000Y-69748061D01*
X93451226Y-69548102D01*
X93373205Y-69359744D01*
X93259937Y-69190226D01*
X93115774Y-69046063D01*
X92946256Y-68932795D01*
X92757898Y-68854774D01*
X92557939Y-68815000D01*
X92354061Y-68815000D01*
X92154102Y-68854774D01*
X91965744Y-68932795D01*
X91796226Y-69046063D01*
X91652063Y-69190226D01*
X91538795Y-69359744D01*
X91460774Y-69548102D01*
X91421000Y-69748061D01*
X88898000Y-69748061D01*
X88898000Y-63187711D01*
X88941937Y-63143774D01*
X89055205Y-62974256D01*
X89133226Y-62785898D01*
X89173000Y-62585939D01*
X89173000Y-62382061D01*
X89133226Y-62182102D01*
X89055205Y-61993744D01*
X88941937Y-61824226D01*
X88797774Y-61680063D01*
X88628256Y-61566795D01*
X88439898Y-61488774D01*
X88239939Y-61449000D01*
X88036061Y-61449000D01*
X87836102Y-61488774D01*
X87647744Y-61566795D01*
X87478226Y-61680063D01*
X87334063Y-61824226D01*
X87220795Y-61993744D01*
X87142774Y-62182102D01*
X87137026Y-62211000D01*
X87020061Y-62211000D01*
X86820102Y-62250774D01*
X86631744Y-62328795D01*
X86462226Y-62442063D01*
X86318063Y-62586226D01*
X86204795Y-62755744D01*
X86126774Y-62944102D01*
X86087000Y-63144061D01*
X77469191Y-63144061D01*
X77464706Y-63139576D01*
X77221338Y-62976962D01*
X76950921Y-62864952D01*
X76663848Y-62807850D01*
X76371152Y-62807850D01*
X76084079Y-62864952D01*
X75813662Y-62976962D01*
X75570294Y-63139576D01*
X75363326Y-63346544D01*
X75200712Y-63589912D01*
X75088702Y-63860329D01*
X75031600Y-64147402D01*
X75031600Y-64440098D01*
X75088702Y-64727171D01*
X75189626Y-64970825D01*
X74928000Y-64709199D01*
X74928000Y-61402084D01*
X75182925Y-61220415D01*
X75351066Y-61041831D01*
X79342540Y-61041831D01*
X79342540Y-61245709D01*
X79382314Y-61445668D01*
X79460335Y-61634026D01*
X79573603Y-61803544D01*
X79717766Y-61947707D01*
X79887284Y-62060975D01*
X80075642Y-62138996D01*
X80275601Y-62178770D01*
X80479479Y-62178770D01*
X80679438Y-62138996D01*
X80867796Y-62060975D01*
X81037314Y-61947707D01*
X81181477Y-61803544D01*
X81294745Y-61634026D01*
X81372766Y-61445668D01*
X81375654Y-61431147D01*
X82610803Y-60196000D01*
X90386678Y-60196000D01*
X90424000Y-60199676D01*
X90461322Y-60196000D01*
X90461333Y-60196000D01*
X90572986Y-60185003D01*
X90716247Y-60141546D01*
X90848276Y-60070974D01*
X90964001Y-59976001D01*
X90987804Y-59946998D01*
X91479802Y-59455000D01*
X91541939Y-59455000D01*
X91741898Y-59415226D01*
X91930256Y-59337205D01*
X92099774Y-59223937D01*
X92243937Y-59079774D01*
X92357205Y-58910256D01*
X92435226Y-58721898D01*
X92475000Y-58521939D01*
X92475000Y-58318061D01*
X92435226Y-58118102D01*
X92357205Y-57929744D01*
X92243937Y-57760226D01*
X92099774Y-57616063D01*
X91930256Y-57502795D01*
X91741898Y-57424774D01*
X91541939Y-57385000D01*
X91338061Y-57385000D01*
X91138102Y-57424774D01*
X90949744Y-57502795D01*
X90780226Y-57616063D01*
X90636063Y-57760226D01*
X90522795Y-57929744D01*
X90444774Y-58118102D01*
X90405000Y-58318061D01*
X90405000Y-58380198D01*
X90109199Y-58676000D01*
X82333322Y-58676000D01*
X82295999Y-58672324D01*
X82258676Y-58676000D01*
X82258667Y-58676000D01*
X82147014Y-58686997D01*
X82003753Y-58730454D01*
X81871724Y-58801026D01*
X81871722Y-58801027D01*
X81871723Y-58801027D01*
X81784996Y-58872201D01*
X81784992Y-58872205D01*
X81755999Y-58895999D01*
X81732205Y-58924992D01*
X80536989Y-60120209D01*
X80479479Y-60108770D01*
X80275601Y-60108770D01*
X80075642Y-60148544D01*
X79887284Y-60226565D01*
X79717766Y-60339833D01*
X79573603Y-60483996D01*
X79460335Y-60653514D01*
X79382314Y-60841872D01*
X79342540Y-61041831D01*
X75351066Y-61041831D01*
X75437459Y-60950073D01*
X75634363Y-60635267D01*
X75766066Y-60288097D01*
X75812113Y-60013666D01*
X75864156Y-59250246D01*
X75855779Y-58972105D01*
X75772410Y-58610273D01*
X75620052Y-58271658D01*
X75404561Y-57969273D01*
X75134219Y-57714739D01*
X74819413Y-57517836D01*
X74472243Y-57386132D01*
X74106050Y-57324689D01*
X73734907Y-57335867D01*
X73373075Y-57419236D01*
X73034460Y-57571594D01*
X72732075Y-57787085D01*
X72477541Y-58057427D01*
X72280637Y-58372233D01*
X72148934Y-58719403D01*
X72102887Y-58993834D01*
X72050844Y-59757255D01*
X72059221Y-60035395D01*
X72142590Y-60397227D01*
X72294948Y-60735842D01*
X72510439Y-61038227D01*
X72780781Y-61292761D01*
X73095587Y-61489665D01*
X73408001Y-61608183D01*
X73408000Y-62546424D01*
X73113326Y-62251750D01*
X72682751Y-61964049D01*
X72204322Y-61765877D01*
X71696424Y-61664850D01*
X71178576Y-61664850D01*
X70670678Y-61765877D01*
X70192249Y-61964049D01*
X69761674Y-62251750D01*
X69395500Y-62617924D01*
X69107799Y-63048499D01*
X68942500Y-63447566D01*
X68942500Y-63035617D01*
X68946282Y-63032373D01*
X69118078Y-62813470D01*
X70426506Y-60759650D01*
X70552296Y-60511438D01*
X70652305Y-60153847D01*
X70680631Y-59783616D01*
X70636183Y-59414973D01*
X70520671Y-59062086D01*
X70338534Y-58738513D01*
X70096770Y-58456692D01*
X69804671Y-58227451D01*
X69473463Y-58059601D01*
X69115873Y-57959592D01*
X68745641Y-57931267D01*
X68376999Y-57975714D01*
X68024111Y-58091226D01*
X67700539Y-58273363D01*
X67418718Y-58515127D01*
X67246922Y-58734030D01*
X66947500Y-59204028D01*
X66947500Y-58135500D01*
X66896111Y-57867740D01*
X66793472Y-57615151D01*
X66643528Y-57387439D01*
X66452040Y-57193355D01*
X66226368Y-57040358D01*
X65975184Y-56934327D01*
X65903685Y-56920182D01*
X65689500Y-57042844D01*
X65689500Y-59385500D01*
X65709500Y-59385500D01*
X65709500Y-59639500D01*
X65689500Y-59639500D01*
X65689500Y-61696819D01*
X65684369Y-61763885D01*
X65689500Y-61806440D01*
X65689500Y-61982156D01*
X65712258Y-61995189D01*
X65728817Y-62132527D01*
X65844328Y-62485414D01*
X66026466Y-62808987D01*
X66052554Y-62839397D01*
X65924079Y-62864952D01*
X65653662Y-62976962D01*
X65410294Y-63139576D01*
X65203326Y-63346544D01*
X65040712Y-63589912D01*
X64928702Y-63860329D01*
X64871600Y-64147402D01*
X64871600Y-64440098D01*
X64928702Y-64727171D01*
X65040712Y-64997588D01*
X65203326Y-65240956D01*
X65410294Y-65447924D01*
X65653662Y-65610538D01*
X65924079Y-65722548D01*
X66211152Y-65779650D01*
X66495548Y-65779650D01*
X65021003Y-67254196D01*
X64991999Y-67277999D01*
X64944010Y-67336474D01*
X64897026Y-67393724D01*
X64866677Y-67450503D01*
X64826454Y-67525754D01*
X64782997Y-67669015D01*
X64772000Y-67780668D01*
X64772000Y-67780678D01*
X64768324Y-67818000D01*
X64772000Y-67855322D01*
X64772001Y-77135918D01*
X64768324Y-77173250D01*
X64782998Y-77322235D01*
X64826454Y-77465496D01*
X64897026Y-77597526D01*
X64948522Y-77660273D01*
X64992000Y-77713251D01*
X65020998Y-77737049D01*
X66398980Y-79115032D01*
X65938493Y-79837851D01*
X65812704Y-80086064D01*
X65712694Y-80443654D01*
X65684369Y-80813885D01*
X65728817Y-81182527D01*
X65844328Y-81535414D01*
X66026466Y-81858987D01*
X66052554Y-81889397D01*
X65924079Y-81914952D01*
X65653662Y-82026962D01*
X65410294Y-82189576D01*
X65203326Y-82396544D01*
X65040712Y-82639912D01*
X64928702Y-82910329D01*
X64871600Y-83197402D01*
X64871600Y-83490098D01*
X64928702Y-83777171D01*
X65040712Y-84047588D01*
X65203326Y-84290956D01*
X65410294Y-84497924D01*
X65653662Y-84660538D01*
X65924079Y-84772548D01*
X66211152Y-84829650D01*
X66503848Y-84829650D01*
X66790921Y-84772548D01*
X67061338Y-84660538D01*
X67304706Y-84497924D01*
X67511674Y-84290956D01*
X67674288Y-84047588D01*
X67786298Y-83777171D01*
X67843400Y-83490098D01*
X67843400Y-83197402D01*
X67786298Y-82910329D01*
X67682059Y-82658674D01*
X67988000Y-82621786D01*
X68340887Y-82506275D01*
X68664460Y-82324137D01*
X68946282Y-82082373D01*
X69118078Y-81863470D01*
X70426506Y-79809650D01*
X70552296Y-79561438D01*
X70652305Y-79203847D01*
X70680631Y-78833616D01*
X70636183Y-78464973D01*
X70520671Y-78112086D01*
X70338534Y-77788513D01*
X70096770Y-77506692D01*
X69804671Y-77277451D01*
X69473463Y-77109601D01*
X69115873Y-77009592D01*
X68745641Y-76981267D01*
X68376999Y-77025714D01*
X68024111Y-77141226D01*
X67700539Y-77323363D01*
X67418718Y-77565127D01*
X67246922Y-77784030D01*
X67235504Y-77801953D01*
X66292000Y-76858449D01*
X66292000Y-70312101D01*
X66383006Y-70386787D01*
X66493320Y-70445752D01*
X66613018Y-70482062D01*
X66737500Y-70494322D01*
X66777500Y-70494322D01*
X66777500Y-71056177D01*
X66773824Y-71093500D01*
X66777500Y-71130822D01*
X66777500Y-71130832D01*
X66788497Y-71242485D01*
X66797469Y-71272061D01*
X66831954Y-71385746D01*
X66902526Y-71517776D01*
X66942371Y-71566326D01*
X66997499Y-71633501D01*
X67026503Y-71657304D01*
X69286200Y-73917002D01*
X69309999Y-73946001D01*
X69425724Y-74040974D01*
X69557753Y-74111546D01*
X69701014Y-74155003D01*
X69812667Y-74166000D01*
X69812677Y-74166000D01*
X69850000Y-74169676D01*
X69887323Y-74166000D01*
X71821199Y-74166000D01*
X74032114Y-76376916D01*
X73734907Y-76385867D01*
X73373075Y-76469236D01*
X73034460Y-76621594D01*
X72732075Y-76837085D01*
X72477541Y-77107427D01*
X72280637Y-77422233D01*
X72148934Y-77769403D01*
X72102887Y-78043834D01*
X72050844Y-78807255D01*
X72059221Y-79085395D01*
X72142590Y-79447227D01*
X72294948Y-79785842D01*
X72510439Y-80088227D01*
X72780781Y-80342761D01*
X73095587Y-80539665D01*
X73408001Y-80658183D01*
X73408001Y-81596425D01*
X73113326Y-81301750D01*
X72682751Y-81014049D01*
X72204322Y-80815877D01*
X71696424Y-80714850D01*
X71178576Y-80714850D01*
X70670678Y-80815877D01*
X70192249Y-81014049D01*
X69761674Y-81301750D01*
X69395500Y-81667924D01*
X69107799Y-82098499D01*
X68909627Y-82576928D01*
X68808600Y-83084826D01*
X68808600Y-83602674D01*
X68909627Y-84110572D01*
X69107799Y-84589001D01*
X69395500Y-85019576D01*
X69761674Y-85385750D01*
X70192249Y-85673451D01*
X70670678Y-85871623D01*
X71178576Y-85972650D01*
X71696424Y-85972650D01*
X72204322Y-85871623D01*
X72682751Y-85673451D01*
X73113326Y-85385750D01*
X73441129Y-85057947D01*
X73445470Y-85072256D01*
X73462454Y-85128246D01*
X73533026Y-85260276D01*
X73560918Y-85294262D01*
X73627999Y-85376001D01*
X73657003Y-85399804D01*
X74577501Y-86320303D01*
X74577501Y-86888206D01*
X74422741Y-86991613D01*
X74222863Y-87191491D01*
X74065820Y-87426523D01*
X73957647Y-87687676D01*
X73902500Y-87964915D01*
X73902500Y-88247585D01*
X73957647Y-88524824D01*
X74065820Y-88785977D01*
X74222863Y-89021009D01*
X74422741Y-89220887D01*
X74657773Y-89377930D01*
X74918926Y-89486103D01*
X75196165Y-89541250D01*
X75478835Y-89541250D01*
X75756074Y-89486103D01*
X76017227Y-89377930D01*
X76252259Y-89220887D01*
X76452137Y-89021009D01*
X76609180Y-88785977D01*
X76717353Y-88524824D01*
X76772500Y-88247585D01*
X76772500Y-87964915D01*
X76717353Y-87687676D01*
X76609180Y-87426523D01*
X76452137Y-87191491D01*
X76252259Y-86991613D01*
X76097500Y-86888207D01*
X76097500Y-86042825D01*
X76101176Y-86005500D01*
X76097500Y-85968175D01*
X76097500Y-85968167D01*
X76086503Y-85856514D01*
X76043046Y-85713253D01*
X75972474Y-85581224D01*
X75877501Y-85465499D01*
X75848503Y-85441701D01*
X74928000Y-84521199D01*
X74928000Y-83197402D01*
X75031600Y-83197402D01*
X75031600Y-83490098D01*
X75088702Y-83777171D01*
X75200712Y-84047588D01*
X75363326Y-84290956D01*
X75570294Y-84497924D01*
X75813662Y-84660538D01*
X76084079Y-84772548D01*
X76371152Y-84829650D01*
X76663848Y-84829650D01*
X76950921Y-84772548D01*
X77221338Y-84660538D01*
X77464706Y-84497924D01*
X77671674Y-84290956D01*
X77834288Y-84047588D01*
X77946298Y-83777171D01*
X78003400Y-83490098D01*
X78003400Y-83197402D01*
X77946298Y-82910329D01*
X77834288Y-82639912D01*
X77671674Y-82396544D01*
X77464706Y-82189576D01*
X77221338Y-82026962D01*
X76950921Y-81914952D01*
X76663848Y-81857850D01*
X76371152Y-81857850D01*
X76084079Y-81914952D01*
X75813662Y-82026962D01*
X75570294Y-82189576D01*
X75363326Y-82396544D01*
X75200712Y-82639912D01*
X75088702Y-82910329D01*
X75031600Y-83197402D01*
X74928000Y-83197402D01*
X74928000Y-80452084D01*
X75182925Y-80270415D01*
X75437459Y-80000073D01*
X75634363Y-79685267D01*
X75766066Y-79338097D01*
X75812113Y-79063666D01*
X75864156Y-78300246D01*
X75861321Y-78206123D01*
X79954201Y-82299003D01*
X79977999Y-82328001D01*
X80006997Y-82351799D01*
X80093723Y-82422974D01*
X80225753Y-82493546D01*
X80369014Y-82537003D01*
X80480667Y-82548000D01*
X80480676Y-82548000D01*
X80517999Y-82551676D01*
X80555322Y-82548000D01*
X85287198Y-82548000D01*
X77663199Y-90172000D01*
X69656803Y-90172000D01*
X68812824Y-89328022D01*
X68868037Y-89260744D01*
X68927002Y-89150430D01*
X68963312Y-89030732D01*
X68975572Y-88906250D01*
X68975572Y-87306250D01*
X68963312Y-87181768D01*
X68927002Y-87062070D01*
X68868037Y-86951756D01*
X68788685Y-86855065D01*
X68691994Y-86775713D01*
X68581680Y-86716748D01*
X68461982Y-86680438D01*
X68337500Y-86668178D01*
X66737500Y-86668178D01*
X66613018Y-86680438D01*
X66493320Y-86716748D01*
X66383006Y-86775713D01*
X66286315Y-86855065D01*
X66206963Y-86951756D01*
X66147998Y-87062070D01*
X66111688Y-87181768D01*
X66099428Y-87306250D01*
X66099428Y-88906250D01*
X66111688Y-89030732D01*
X66147998Y-89150430D01*
X66206963Y-89260744D01*
X66286315Y-89357435D01*
X66383006Y-89436787D01*
X66493320Y-89495752D01*
X66613018Y-89532062D01*
X66737500Y-89544322D01*
X66898542Y-89544322D01*
X66902526Y-89551776D01*
X66942371Y-89600326D01*
X66997499Y-89667501D01*
X67026502Y-89691303D01*
X67957208Y-90622010D01*
X55882812Y-90622010D01*
X49892500Y-84631699D01*
X49892500Y-84189934D01*
X50057799Y-84589001D01*
X50345500Y-85019576D01*
X50711674Y-85385750D01*
X51142249Y-85673451D01*
X51620678Y-85871623D01*
X52128576Y-85972650D01*
X52646424Y-85972650D01*
X53154322Y-85871623D01*
X53632751Y-85673451D01*
X54063326Y-85385750D01*
X54429500Y-85019576D01*
X54612000Y-84746445D01*
X54612000Y-84798677D01*
X54608324Y-84836000D01*
X54612000Y-84873322D01*
X54612000Y-84873332D01*
X54622997Y-84984985D01*
X54649470Y-85072256D01*
X54666454Y-85128246D01*
X54737026Y-85260276D01*
X54764918Y-85294262D01*
X54831999Y-85376001D01*
X54861002Y-85399803D01*
X55527501Y-86066303D01*
X55527501Y-86888206D01*
X55372741Y-86991613D01*
X55172863Y-87191491D01*
X55015820Y-87426523D01*
X54907647Y-87687676D01*
X54852500Y-87964915D01*
X54852500Y-88247585D01*
X54907647Y-88524824D01*
X55015820Y-88785977D01*
X55172863Y-89021009D01*
X55372741Y-89220887D01*
X55607773Y-89377930D01*
X55868926Y-89486103D01*
X56146165Y-89541250D01*
X56428835Y-89541250D01*
X56706074Y-89486103D01*
X56967227Y-89377930D01*
X57202259Y-89220887D01*
X57402137Y-89021009D01*
X57559180Y-88785977D01*
X57667353Y-88524824D01*
X57722500Y-88247585D01*
X57722500Y-87964915D01*
X57667353Y-87687676D01*
X57559180Y-87426523D01*
X57402137Y-87191491D01*
X57202259Y-86991613D01*
X57047500Y-86888207D01*
X57047500Y-85788833D01*
X57051177Y-85751500D01*
X57036503Y-85602514D01*
X56993046Y-85459253D01*
X56922474Y-85327224D01*
X56851299Y-85240497D01*
X56827501Y-85211499D01*
X56798503Y-85187701D01*
X56132000Y-84521199D01*
X56132000Y-84002413D01*
X56150712Y-84047588D01*
X56313326Y-84290956D01*
X56520294Y-84497924D01*
X56763662Y-84660538D01*
X57034079Y-84772548D01*
X57321152Y-84829650D01*
X57613848Y-84829650D01*
X57900921Y-84772548D01*
X58171338Y-84660538D01*
X58414706Y-84497924D01*
X58621674Y-84290956D01*
X58784288Y-84047588D01*
X58896298Y-83777171D01*
X58953400Y-83490098D01*
X58953400Y-83197402D01*
X58896298Y-82910329D01*
X58784288Y-82639912D01*
X58621674Y-82396544D01*
X58414706Y-82189576D01*
X58171338Y-82026962D01*
X57900921Y-81914952D01*
X57613848Y-81857850D01*
X57321152Y-81857850D01*
X57034079Y-81914952D01*
X56763662Y-82026962D01*
X56520294Y-82189576D01*
X56313326Y-82396544D01*
X56150712Y-82639912D01*
X56132000Y-82685087D01*
X56132000Y-80271074D01*
X56132925Y-80270415D01*
X56387459Y-80000073D01*
X56584363Y-79685267D01*
X56716066Y-79338097D01*
X56762113Y-79063666D01*
X56814156Y-78300246D01*
X56805779Y-78022105D01*
X56722410Y-77660273D01*
X56570052Y-77321658D01*
X56354561Y-77019273D01*
X56084219Y-76764739D01*
X55769413Y-76567836D01*
X55422243Y-76436132D01*
X55056050Y-76374689D01*
X54684907Y-76385867D01*
X54323075Y-76469236D01*
X53984460Y-76621594D01*
X53682075Y-76837085D01*
X53427541Y-77107427D01*
X53230637Y-77422233D01*
X53098934Y-77769403D01*
X53052887Y-78043834D01*
X53000844Y-78807255D01*
X53009221Y-79085395D01*
X53092590Y-79447227D01*
X53244948Y-79785842D01*
X53460439Y-80088227D01*
X53730781Y-80342761D01*
X54045587Y-80539665D01*
X54392757Y-80671368D01*
X54612001Y-80708155D01*
X54612000Y-81941055D01*
X54429500Y-81667924D01*
X54063326Y-81301750D01*
X53632751Y-81014049D01*
X53154322Y-80815877D01*
X52646424Y-80714850D01*
X52128576Y-80714850D01*
X51620678Y-80815877D01*
X51142249Y-81014049D01*
X50711674Y-81301750D01*
X50345500Y-81667924D01*
X50057799Y-82098499D01*
X49892500Y-82497566D01*
X49892500Y-82085617D01*
X49896282Y-82082373D01*
X50068078Y-81863470D01*
X51376506Y-79809650D01*
X51502296Y-79561438D01*
X51602305Y-79203847D01*
X51630631Y-78833616D01*
X51586183Y-78464973D01*
X51470671Y-78112086D01*
X51288534Y-77788513D01*
X51046770Y-77506692D01*
X50754671Y-77277451D01*
X50423463Y-77109601D01*
X50065873Y-77009592D01*
X49695641Y-76981267D01*
X49326999Y-77025714D01*
X48974111Y-77141226D01*
X48650539Y-77323363D01*
X48368718Y-77565127D01*
X48196922Y-77784030D01*
X48185504Y-77801953D01*
X47496000Y-77112449D01*
X47496000Y-71272061D01*
X58147000Y-71272061D01*
X58147000Y-71475939D01*
X58186774Y-71675898D01*
X58264795Y-71864256D01*
X58378063Y-72033774D01*
X58522226Y-72177937D01*
X58691744Y-72291205D01*
X58880102Y-72369226D01*
X59080061Y-72409000D01*
X59283939Y-72409000D01*
X59483898Y-72369226D01*
X59672256Y-72291205D01*
X59841774Y-72177937D01*
X59885711Y-72134000D01*
X62288289Y-72134000D01*
X62332226Y-72177937D01*
X62501744Y-72291205D01*
X62690102Y-72369226D01*
X62890061Y-72409000D01*
X63093939Y-72409000D01*
X63293898Y-72369226D01*
X63482256Y-72291205D01*
X63651774Y-72177937D01*
X63795937Y-72033774D01*
X63909205Y-71864256D01*
X63987226Y-71675898D01*
X64027000Y-71475939D01*
X64027000Y-71272061D01*
X63987226Y-71072102D01*
X63909205Y-70883744D01*
X63795937Y-70714226D01*
X63651774Y-70570063D01*
X63482256Y-70456795D01*
X63293898Y-70378774D01*
X63093939Y-70339000D01*
X62890061Y-70339000D01*
X62690102Y-70378774D01*
X62501744Y-70456795D01*
X62332226Y-70570063D01*
X62288289Y-70614000D01*
X59885711Y-70614000D01*
X59841774Y-70570063D01*
X59672256Y-70456795D01*
X59483898Y-70378774D01*
X59283939Y-70339000D01*
X59080061Y-70339000D01*
X58880102Y-70378774D01*
X58691744Y-70456795D01*
X58522226Y-70570063D01*
X58378063Y-70714226D01*
X58264795Y-70883744D01*
X58186774Y-71072102D01*
X58147000Y-71272061D01*
X47496000Y-71272061D01*
X47496000Y-70461732D01*
X47563018Y-70482062D01*
X47687500Y-70494322D01*
X49287500Y-70494322D01*
X49411982Y-70482062D01*
X49531680Y-70445752D01*
X49641994Y-70386787D01*
X49738685Y-70307435D01*
X49818037Y-70210744D01*
X49877002Y-70100430D01*
X49913312Y-69980732D01*
X49925572Y-69856250D01*
X49925572Y-68256250D01*
X49913312Y-68131768D01*
X49877002Y-68012070D01*
X49818037Y-67901756D01*
X49738685Y-67805065D01*
X49641994Y-67725713D01*
X49531680Y-67666748D01*
X49411982Y-67630438D01*
X49287500Y-67618178D01*
X48010623Y-67618178D01*
X49643503Y-65985299D01*
X49672501Y-65961501D01*
X49767474Y-65845776D01*
X49838046Y-65713747D01*
X49881503Y-65570486D01*
X49892500Y-65458833D01*
X49892500Y-65458823D01*
X49896176Y-65421500D01*
X49892500Y-65384177D01*
X49892500Y-65139934D01*
X50057799Y-65539001D01*
X50345500Y-65969576D01*
X50711674Y-66335750D01*
X51142249Y-66623451D01*
X51620678Y-66821623D01*
X52128576Y-66922650D01*
X52646424Y-66922650D01*
X53154322Y-66821623D01*
X53632751Y-66623451D01*
X54063326Y-66335750D01*
X54429500Y-65969576D01*
X54463187Y-65919160D01*
X54483026Y-65956276D01*
X54515589Y-65995954D01*
X54577999Y-66072001D01*
X54607003Y-66095804D01*
X55527500Y-67016302D01*
X55527500Y-67838206D01*
X55372741Y-67941613D01*
X55172863Y-68141491D01*
X55015820Y-68376523D01*
X54907647Y-68637676D01*
X54852500Y-68914915D01*
X54852500Y-69197585D01*
X54907647Y-69474824D01*
X55015820Y-69735977D01*
X55172863Y-69971009D01*
X55372741Y-70170887D01*
X55607773Y-70327930D01*
X55868926Y-70436103D01*
X56146165Y-70491250D01*
X56428835Y-70491250D01*
X56706074Y-70436103D01*
X56967227Y-70327930D01*
X57202259Y-70170887D01*
X57402137Y-69971009D01*
X57559180Y-69735977D01*
X57667353Y-69474824D01*
X57722500Y-69197585D01*
X57722500Y-68914915D01*
X57667353Y-68637676D01*
X57559180Y-68376523D01*
X57402137Y-68141491D01*
X57202259Y-67941613D01*
X57047500Y-67838207D01*
X57047500Y-66738825D01*
X57051176Y-66701500D01*
X57047500Y-66664175D01*
X57047500Y-66664167D01*
X57036503Y-66552514D01*
X56993046Y-66409253D01*
X56922474Y-66277224D01*
X56827501Y-66161499D01*
X56798504Y-66137702D01*
X55878000Y-65217199D01*
X55878000Y-64147402D01*
X55981600Y-64147402D01*
X55981600Y-64440098D01*
X56038702Y-64727171D01*
X56150712Y-64997588D01*
X56313326Y-65240956D01*
X56520294Y-65447924D01*
X56763662Y-65610538D01*
X57034079Y-65722548D01*
X57321152Y-65779650D01*
X57613848Y-65779650D01*
X57900921Y-65722548D01*
X58171338Y-65610538D01*
X58414706Y-65447924D01*
X58621674Y-65240956D01*
X58784288Y-64997588D01*
X58896298Y-64727171D01*
X58953400Y-64440098D01*
X58953400Y-64147402D01*
X58896298Y-63860329D01*
X58784288Y-63589912D01*
X58621674Y-63346544D01*
X58414706Y-63139576D01*
X58171338Y-62976962D01*
X57900921Y-62864952D01*
X57613848Y-62807850D01*
X57321152Y-62807850D01*
X57034079Y-62864952D01*
X56763662Y-62976962D01*
X56520294Y-63139576D01*
X56313326Y-63346544D01*
X56150712Y-63589912D01*
X56038702Y-63860329D01*
X55981600Y-64147402D01*
X55878000Y-64147402D01*
X55878000Y-61402084D01*
X56132925Y-61220415D01*
X56387459Y-60950073D01*
X56584363Y-60635267D01*
X56716066Y-60288097D01*
X56762113Y-60013666D01*
X56787620Y-59639500D01*
X56877500Y-59639500D01*
X56877500Y-60889500D01*
X56928889Y-61157260D01*
X57031528Y-61409849D01*
X57181472Y-61637561D01*
X57372960Y-61831645D01*
X57598632Y-61984642D01*
X57849816Y-62090673D01*
X57921315Y-62104818D01*
X58135500Y-61982156D01*
X58135500Y-59639500D01*
X58389500Y-59639500D01*
X58389500Y-61982156D01*
X58603685Y-62104818D01*
X58675184Y-62090673D01*
X58926368Y-61984642D01*
X59152040Y-61831645D01*
X59343528Y-61637561D01*
X59493472Y-61409849D01*
X59596111Y-61157260D01*
X59647500Y-60889500D01*
X59647500Y-59639500D01*
X64177500Y-59639500D01*
X64177500Y-60889500D01*
X64228889Y-61157260D01*
X64331528Y-61409849D01*
X64481472Y-61637561D01*
X64672960Y-61831645D01*
X64898632Y-61984642D01*
X65149816Y-62090673D01*
X65221315Y-62104818D01*
X65435500Y-61982156D01*
X65435500Y-59639500D01*
X64177500Y-59639500D01*
X59647500Y-59639500D01*
X58389500Y-59639500D01*
X58135500Y-59639500D01*
X56877500Y-59639500D01*
X56787620Y-59639500D01*
X56814156Y-59250246D01*
X56805779Y-58972105D01*
X56722410Y-58610273D01*
X56570052Y-58271658D01*
X56473021Y-58135500D01*
X56877500Y-58135500D01*
X56877500Y-59385500D01*
X58135500Y-59385500D01*
X58135500Y-57042844D01*
X58389500Y-57042844D01*
X58389500Y-59385500D01*
X59647500Y-59385500D01*
X59647500Y-58135500D01*
X64177500Y-58135500D01*
X64177500Y-59385500D01*
X65435500Y-59385500D01*
X65435500Y-57042844D01*
X65221315Y-56920182D01*
X65149816Y-56934327D01*
X64898632Y-57040358D01*
X64672960Y-57193355D01*
X64481472Y-57387439D01*
X64331528Y-57615151D01*
X64228889Y-57867740D01*
X64177500Y-58135500D01*
X59647500Y-58135500D01*
X59596111Y-57867740D01*
X59493472Y-57615151D01*
X59343528Y-57387439D01*
X59152040Y-57193355D01*
X58926368Y-57040358D01*
X58675184Y-56934327D01*
X58603685Y-56920182D01*
X58389500Y-57042844D01*
X58135500Y-57042844D01*
X57921315Y-56920182D01*
X57849816Y-56934327D01*
X57598632Y-57040358D01*
X57372960Y-57193355D01*
X57181472Y-57387439D01*
X57031528Y-57615151D01*
X56928889Y-57867740D01*
X56877500Y-58135500D01*
X56473021Y-58135500D01*
X56354561Y-57969273D01*
X56084219Y-57714739D01*
X55769413Y-57517836D01*
X55422243Y-57386132D01*
X55056050Y-57324689D01*
X54684907Y-57335867D01*
X54323075Y-57419236D01*
X53984460Y-57571594D01*
X53682075Y-57787085D01*
X53427541Y-58057427D01*
X53230637Y-58372233D01*
X53098934Y-58719403D01*
X53052887Y-58993834D01*
X53000844Y-59757255D01*
X53009221Y-60035395D01*
X53092590Y-60397227D01*
X53244948Y-60735842D01*
X53460439Y-61038227D01*
X53730781Y-61292761D01*
X54045587Y-61489665D01*
X54358001Y-61608183D01*
X54358001Y-62546425D01*
X54063326Y-62251750D01*
X53632751Y-61964049D01*
X53154322Y-61765877D01*
X52646424Y-61664850D01*
X52128576Y-61664850D01*
X51620678Y-61765877D01*
X51142249Y-61964049D01*
X50711674Y-62251750D01*
X50345500Y-62617924D01*
X50057799Y-63048499D01*
X49892500Y-63447566D01*
X49892500Y-63035617D01*
X49896282Y-63032373D01*
X50068078Y-62813470D01*
X51376506Y-60759650D01*
X51502296Y-60511438D01*
X51602305Y-60153847D01*
X51630631Y-59783616D01*
X51586183Y-59414973D01*
X51470671Y-59062086D01*
X51288534Y-58738513D01*
X51046770Y-58456692D01*
X50754671Y-58227451D01*
X50423463Y-58059601D01*
X50065873Y-57959592D01*
X49695641Y-57931267D01*
X49326999Y-57975714D01*
X48974111Y-58091226D01*
X48650539Y-58273363D01*
X48368718Y-58515127D01*
X48196922Y-58734030D01*
X46888493Y-60787851D01*
X46762704Y-61036064D01*
X46662694Y-61393654D01*
X46634369Y-61763885D01*
X46678817Y-62132527D01*
X46794328Y-62485414D01*
X46976466Y-62808987D01*
X47002554Y-62839397D01*
X46874079Y-62864952D01*
X46603662Y-62976962D01*
X46360294Y-63139576D01*
X46153326Y-63346544D01*
X45990712Y-63589912D01*
X45878702Y-63860329D01*
X45821600Y-64147402D01*
X45821600Y-64440098D01*
X45878702Y-64727171D01*
X45990712Y-64997588D01*
X46153326Y-65240956D01*
X46360294Y-65447924D01*
X46603662Y-65610538D01*
X46874079Y-65722548D01*
X47161152Y-65779650D01*
X47453848Y-65779650D01*
X47740921Y-65722548D01*
X47767773Y-65711426D01*
X46225003Y-67254196D01*
X46195999Y-67277999D01*
X46148010Y-67336474D01*
X46101026Y-67393724D01*
X46070677Y-67450503D01*
X46030454Y-67525754D01*
X45986997Y-67669015D01*
X45976000Y-67780668D01*
X45976000Y-67780678D01*
X45972324Y-67818000D01*
X45976000Y-67855322D01*
X45976001Y-77389918D01*
X45972324Y-77427250D01*
X45986998Y-77576235D01*
X46030454Y-77719496D01*
X46101026Y-77851526D01*
X46159071Y-77922253D01*
X46196000Y-77967251D01*
X46224998Y-77991049D01*
X47348980Y-79115032D01*
X46888493Y-79837851D01*
X46762704Y-80086064D01*
X46662694Y-80443654D01*
X46634369Y-80813885D01*
X46678817Y-81182527D01*
X46794328Y-81535414D01*
X46976466Y-81858987D01*
X47002554Y-81889397D01*
X46874079Y-81914952D01*
X46603662Y-82026962D01*
X46360294Y-82189576D01*
X46153326Y-82396544D01*
X45990712Y-82639912D01*
X45878702Y-82910329D01*
X45821600Y-83197402D01*
X45821600Y-83490098D01*
X45878702Y-83777171D01*
X45990712Y-84047588D01*
X46153326Y-84290956D01*
X46360294Y-84497924D01*
X46603662Y-84660538D01*
X46874079Y-84772548D01*
X47161152Y-84829650D01*
X47453848Y-84829650D01*
X47740921Y-84772548D01*
X48011338Y-84660538D01*
X48254706Y-84497924D01*
X48372500Y-84380130D01*
X48372500Y-84909177D01*
X48368824Y-84946500D01*
X48372500Y-84983822D01*
X48372500Y-84983832D01*
X48383497Y-85095485D01*
X48418689Y-85211499D01*
X48426954Y-85238746D01*
X48497526Y-85370776D01*
X48537371Y-85419326D01*
X48592499Y-85486501D01*
X48621503Y-85510304D01*
X55004211Y-91893013D01*
X55028009Y-91922011D01*
X55057007Y-91945809D01*
X55143734Y-92016984D01*
X55275763Y-92087556D01*
X55419024Y-92131013D01*
X55568010Y-92145687D01*
X55605343Y-92142010D01*
X76943000Y-92142010D01*
X76943000Y-92208750D01*
X45276029Y-92208750D01*
X44910040Y-92172864D01*
X44589038Y-92075948D01*
X44292975Y-91918529D01*
X44033127Y-91706601D01*
X43819394Y-91448242D01*
X43659912Y-91153286D01*
X43560757Y-90832969D01*
X43522500Y-90468979D01*
X43522500Y-87306250D01*
X47049428Y-87306250D01*
X47049428Y-88906250D01*
X47061688Y-89030732D01*
X47097998Y-89150430D01*
X47156963Y-89260744D01*
X47236315Y-89357435D01*
X47333006Y-89436787D01*
X47443320Y-89495752D01*
X47563018Y-89532062D01*
X47687500Y-89544322D01*
X49287500Y-89544322D01*
X49411982Y-89532062D01*
X49531680Y-89495752D01*
X49641994Y-89436787D01*
X49738685Y-89357435D01*
X49818037Y-89260744D01*
X49877002Y-89150430D01*
X49913312Y-89030732D01*
X49925572Y-88906250D01*
X49925572Y-87306250D01*
X49913312Y-87181768D01*
X49877002Y-87062070D01*
X49818037Y-86951756D01*
X49738685Y-86855065D01*
X49641994Y-86775713D01*
X49531680Y-86716748D01*
X49411982Y-86680438D01*
X49287500Y-86668178D01*
X47687500Y-86668178D01*
X47563018Y-86680438D01*
X47443320Y-86716748D01*
X47333006Y-86775713D01*
X47236315Y-86855065D01*
X47156963Y-86951756D01*
X47097998Y-87062070D01*
X47061688Y-87181768D01*
X47049428Y-87306250D01*
X43522500Y-87306250D01*
X43522500Y-57182279D01*
X43558386Y-56816290D01*
X43655301Y-56495290D01*
X43812721Y-56199225D01*
X44024649Y-55939377D01*
X44283010Y-55725642D01*
X44577964Y-55566162D01*
X44898282Y-55467006D01*
X45262262Y-55428750D01*
X104742721Y-55428750D01*
X105108710Y-55464636D01*
G37*
%TD.AperFunction*%
%TD*%
M02*
