%TF.GenerationSoftware,KiCad,Pcbnew,(5.1.10)-1*%
%TF.CreationDate,2021-08-17T23:44:39-04:00*%
%TF.ProjectId,Keyboard_Schematic,4b657962-6f61-4726-945f-536368656d61,rev?*%
%TF.SameCoordinates,Original*%
%TF.FileFunction,Soldermask,Top*%
%TF.FilePolarity,Negative*%
%FSLAX46Y46*%
G04 Gerber Fmt 4.6, Leading zero omitted, Abs format (unit mm)*
G04 Created by KiCad (PCBNEW (5.1.10)-1) date 2021-08-17 23:44:39*
%MOMM*%
%LPD*%
G01*
G04 APERTURE LIST*
%ADD10C,1.600000*%
%ADD11R,1.600000X1.600000*%
%ADD12O,1.500000X4.000000*%
%ADD13C,3.987800*%
%ADD14C,1.701800*%
G04 APERTURE END LIST*
D10*
%TO.C,D1*%
X56287500Y-69056250D03*
D11*
X48487500Y-69056250D03*
%TD*%
D10*
%TO.C,D2*%
X56287500Y-88106250D03*
D11*
X48487500Y-88106250D03*
%TD*%
%TO.C,D3*%
X67537500Y-69056250D03*
D10*
X75337500Y-69056250D03*
%TD*%
D11*
%TO.C,D4*%
X67537500Y-88106250D03*
D10*
X75337500Y-88106250D03*
%TD*%
D12*
%TO.C,J1*%
X58262500Y-59512500D03*
X65562500Y-59512500D03*
%TD*%
D13*
%TO.C,K1*%
X52387500Y-64293750D03*
D14*
X47307500Y-64293750D03*
X57467500Y-64293750D03*
G36*
G01*
X47473799Y-61050940D02*
X48682723Y-59153310D01*
G75*
G02*
X50408587Y-58770696I1054239J-671625D01*
G01*
X50408587Y-58770696D01*
G75*
G02*
X50791201Y-60496560I-671625J-1054239D01*
G01*
X49582277Y-62394190D01*
G75*
G02*
X47856413Y-62776804I-1054239J671625D01*
G01*
X47856413Y-62776804D01*
G75*
G02*
X47473799Y-61050940I671625J1054239D01*
G01*
G37*
G36*
G01*
X53640671Y-59708059D02*
X53680119Y-59129403D01*
G75*
G02*
X55012243Y-57967317I1247105J-85019D01*
G01*
X55012243Y-57967317D01*
G75*
G02*
X56174329Y-59299441I-85019J-1247105D01*
G01*
X56134881Y-59878097D01*
G75*
G02*
X54802757Y-61040183I-1247105J85019D01*
G01*
X54802757Y-61040183D01*
G75*
G02*
X53640671Y-59708059I85019J1247105D01*
G01*
G37*
%TD*%
%TO.C,K2*%
G36*
G01*
X53640671Y-78758059D02*
X53680119Y-78179403D01*
G75*
G02*
X55012243Y-77017317I1247105J-85019D01*
G01*
X55012243Y-77017317D01*
G75*
G02*
X56174329Y-78349441I-85019J-1247105D01*
G01*
X56134881Y-78928097D01*
G75*
G02*
X54802757Y-80090183I-1247105J85019D01*
G01*
X54802757Y-80090183D01*
G75*
G02*
X53640671Y-78758059I85019J1247105D01*
G01*
G37*
G36*
G01*
X47473799Y-80100940D02*
X48682723Y-78203310D01*
G75*
G02*
X50408587Y-77820696I1054239J-671625D01*
G01*
X50408587Y-77820696D01*
G75*
G02*
X50791201Y-79546560I-671625J-1054239D01*
G01*
X49582277Y-81444190D01*
G75*
G02*
X47856413Y-81826804I-1054239J671625D01*
G01*
X47856413Y-81826804D01*
G75*
G02*
X47473799Y-80100940I671625J1054239D01*
G01*
G37*
X57467500Y-83343750D03*
X47307500Y-83343750D03*
D13*
X52387500Y-83343750D03*
%TD*%
%TO.C,K3*%
G36*
G01*
X72690671Y-59708059D02*
X72730119Y-59129403D01*
G75*
G02*
X74062243Y-57967317I1247105J-85019D01*
G01*
X74062243Y-57967317D01*
G75*
G02*
X75224329Y-59299441I-85019J-1247105D01*
G01*
X75184881Y-59878097D01*
G75*
G02*
X73852757Y-61040183I-1247105J85019D01*
G01*
X73852757Y-61040183D01*
G75*
G02*
X72690671Y-59708059I85019J1247105D01*
G01*
G37*
G36*
G01*
X66523799Y-61050940D02*
X67732723Y-59153310D01*
G75*
G02*
X69458587Y-58770696I1054239J-671625D01*
G01*
X69458587Y-58770696D01*
G75*
G02*
X69841201Y-60496560I-671625J-1054239D01*
G01*
X68632277Y-62394190D01*
G75*
G02*
X66906413Y-62776804I-1054239J671625D01*
G01*
X66906413Y-62776804D01*
G75*
G02*
X66523799Y-61050940I671625J1054239D01*
G01*
G37*
D14*
X76517500Y-64293750D03*
X66357500Y-64293750D03*
D13*
X71437500Y-64293750D03*
%TD*%
%TO.C,K4*%
X71437500Y-83343750D03*
D14*
X66357500Y-83343750D03*
X76517500Y-83343750D03*
G36*
G01*
X66523799Y-80100940D02*
X67732723Y-78203310D01*
G75*
G02*
X69458587Y-77820696I1054239J-671625D01*
G01*
X69458587Y-77820696D01*
G75*
G02*
X69841201Y-79546560I-671625J-1054239D01*
G01*
X68632277Y-81444190D01*
G75*
G02*
X66906413Y-81826804I-1054239J671625D01*
G01*
X66906413Y-81826804D01*
G75*
G02*
X66523799Y-80100940I671625J1054239D01*
G01*
G37*
G36*
G01*
X72690671Y-78758059D02*
X72730119Y-78179403D01*
G75*
G02*
X74062243Y-77017317I1247105J-85019D01*
G01*
X74062243Y-77017317D01*
G75*
G02*
X75224329Y-78349441I-85019J-1247105D01*
G01*
X75184881Y-78928097D01*
G75*
G02*
X73852757Y-80090183I-1247105J85019D01*
G01*
X73852757Y-80090183D01*
G75*
G02*
X72690671Y-78758059I85019J1247105D01*
G01*
G37*
%TD*%
M02*
