%TF.GenerationSoftware,KiCad,Pcbnew,(5.1.10)-1*%
%TF.CreationDate,2021-08-17T23:44:39-04:00*%
%TF.ProjectId,Keyboard_Schematic,4b657962-6f61-4726-945f-536368656d61,rev?*%
%TF.SameCoordinates,Original*%
%TF.FileFunction,Paste,Bot*%
%TF.FilePolarity,Positive*%
%FSLAX46Y46*%
G04 Gerber Fmt 4.6, Leading zero omitted, Abs format (unit mm)*
G04 Created by KiCad (PCBNEW (5.1.10)-1) date 2021-08-17 23:44:39*
%MOMM*%
%LPD*%
G01*
G04 APERTURE LIST*
%ADD10R,1.500000X0.550000*%
%ADD11R,0.550000X1.500000*%
%ADD12C,0.100000*%
%ADD13R,1.200000X1.200000*%
%ADD14R,2.350000X0.800000*%
%ADD15R,0.500000X1.400000*%
%ADD16O,1.500000X4.000000*%
%ADD17R,1.700000X1.000000*%
G04 APERTURE END LIST*
D10*
%TO.C,U1*%
X89550000Y-77818750D03*
X89550000Y-77018750D03*
X89550000Y-76218750D03*
X89550000Y-75418750D03*
X89550000Y-74618750D03*
X89550000Y-73818750D03*
X89550000Y-73018750D03*
X89550000Y-72218750D03*
X89550000Y-71418750D03*
X89550000Y-70618750D03*
X89550000Y-69818750D03*
D11*
X91250000Y-68118750D03*
X92050000Y-68118750D03*
X92850000Y-68118750D03*
X93650000Y-68118750D03*
X94450000Y-68118750D03*
X95250000Y-68118750D03*
X96050000Y-68118750D03*
X96850000Y-68118750D03*
X97650000Y-68118750D03*
X98450000Y-68118750D03*
X99250000Y-68118750D03*
D10*
X100950000Y-69818750D03*
X100950000Y-70618750D03*
X100950000Y-71418750D03*
X100950000Y-72218750D03*
X100950000Y-73018750D03*
X100950000Y-73818750D03*
X100950000Y-74618750D03*
X100950000Y-75418750D03*
X100950000Y-76218750D03*
X100950000Y-77018750D03*
X100950000Y-77818750D03*
D11*
X99250000Y-79518750D03*
X98450000Y-79518750D03*
X97650000Y-79518750D03*
X96850000Y-79518750D03*
X96050000Y-79518750D03*
X95250000Y-79518750D03*
X94450000Y-79518750D03*
X93650000Y-79518750D03*
X92850000Y-79518750D03*
X92050000Y-79518750D03*
X91250000Y-79518750D03*
%TD*%
D12*
%TO.C,X1*%
G36*
X96522792Y-62619607D02*
G01*
X95674264Y-61771079D01*
X96664214Y-60781129D01*
X97512742Y-61629657D01*
X96522792Y-62619607D01*
G37*
G36*
X94967157Y-64175242D02*
G01*
X94118629Y-63326714D01*
X95108579Y-62336764D01*
X95957107Y-63185292D01*
X94967157Y-64175242D01*
G37*
G36*
X95391421Y-61488236D02*
G01*
X94542893Y-60639708D01*
X95532843Y-59649758D01*
X96381371Y-60498286D01*
X95391421Y-61488236D01*
G37*
G36*
X93835786Y-63043871D02*
G01*
X92987258Y-62195343D01*
X93977208Y-61205393D01*
X94825736Y-62053921D01*
X93835786Y-63043871D01*
G37*
%TD*%
%TO.C,C1*%
G36*
G01*
X90962500Y-63537500D02*
X90012500Y-63537500D01*
G75*
G02*
X89762500Y-63287500I0J250000D01*
G01*
X89762500Y-62612500D01*
G75*
G02*
X90012500Y-62362500I250000J0D01*
G01*
X90962500Y-62362500D01*
G75*
G02*
X91212500Y-62612500I0J-250000D01*
G01*
X91212500Y-63287500D01*
G75*
G02*
X90962500Y-63537500I-250000J0D01*
G01*
G37*
G36*
G01*
X90962500Y-61462500D02*
X90012500Y-61462500D01*
G75*
G02*
X89762500Y-61212500I0J250000D01*
G01*
X89762500Y-60537500D01*
G75*
G02*
X90012500Y-60287500I250000J0D01*
G01*
X90962500Y-60287500D01*
G75*
G02*
X91212500Y-60537500I0J-250000D01*
G01*
X91212500Y-61212500D01*
G75*
G02*
X90962500Y-61462500I-250000J0D01*
G01*
G37*
%TD*%
%TO.C,C2*%
G36*
G01*
X100487500Y-63537500D02*
X99537500Y-63537500D01*
G75*
G02*
X99287500Y-63287500I0J250000D01*
G01*
X99287500Y-62612500D01*
G75*
G02*
X99537500Y-62362500I250000J0D01*
G01*
X100487500Y-62362500D01*
G75*
G02*
X100737500Y-62612500I0J-250000D01*
G01*
X100737500Y-63287500D01*
G75*
G02*
X100487500Y-63537500I-250000J0D01*
G01*
G37*
G36*
G01*
X100487500Y-61462500D02*
X99537500Y-61462500D01*
G75*
G02*
X99287500Y-61212500I0J250000D01*
G01*
X99287500Y-60537500D01*
G75*
G02*
X99537500Y-60287500I250000J0D01*
G01*
X100487500Y-60287500D01*
G75*
G02*
X100737500Y-60537500I0J-250000D01*
G01*
X100737500Y-61212500D01*
G75*
G02*
X100487500Y-61462500I-250000J0D01*
G01*
G37*
%TD*%
%TO.C,C3*%
G36*
G01*
X104300000Y-79031250D02*
X105250000Y-79031250D01*
G75*
G02*
X105500000Y-79281250I0J-250000D01*
G01*
X105500000Y-79956250D01*
G75*
G02*
X105250000Y-80206250I-250000J0D01*
G01*
X104300000Y-80206250D01*
G75*
G02*
X104050000Y-79956250I0J250000D01*
G01*
X104050000Y-79281250D01*
G75*
G02*
X104300000Y-79031250I250000J0D01*
G01*
G37*
G36*
G01*
X104300000Y-76956250D02*
X105250000Y-76956250D01*
G75*
G02*
X105500000Y-77206250I0J-250000D01*
G01*
X105500000Y-77881250D01*
G75*
G02*
X105250000Y-78131250I-250000J0D01*
G01*
X104300000Y-78131250D01*
G75*
G02*
X104050000Y-77881250I0J250000D01*
G01*
X104050000Y-77206250D01*
G75*
G02*
X104300000Y-76956250I250000J0D01*
G01*
G37*
%TD*%
%TO.C,C4*%
G36*
G01*
X104300000Y-67431250D02*
X105250000Y-67431250D01*
G75*
G02*
X105500000Y-67681250I0J-250000D01*
G01*
X105500000Y-68356250D01*
G75*
G02*
X105250000Y-68606250I-250000J0D01*
G01*
X104300000Y-68606250D01*
G75*
G02*
X104050000Y-68356250I0J250000D01*
G01*
X104050000Y-67681250D01*
G75*
G02*
X104300000Y-67431250I250000J0D01*
G01*
G37*
G36*
G01*
X104300000Y-69506250D02*
X105250000Y-69506250D01*
G75*
G02*
X105500000Y-69756250I0J-250000D01*
G01*
X105500000Y-70431250D01*
G75*
G02*
X105250000Y-70681250I-250000J0D01*
G01*
X104300000Y-70681250D01*
G75*
G02*
X104050000Y-70431250I0J250000D01*
G01*
X104050000Y-69756250D01*
G75*
G02*
X104300000Y-69506250I250000J0D01*
G01*
G37*
%TD*%
%TO.C,C5*%
G36*
G01*
X86200000Y-68606250D02*
X85250000Y-68606250D01*
G75*
G02*
X85000000Y-68356250I0J250000D01*
G01*
X85000000Y-67681250D01*
G75*
G02*
X85250000Y-67431250I250000J0D01*
G01*
X86200000Y-67431250D01*
G75*
G02*
X86450000Y-67681250I0J-250000D01*
G01*
X86450000Y-68356250D01*
G75*
G02*
X86200000Y-68606250I-250000J0D01*
G01*
G37*
G36*
G01*
X86200000Y-70681250D02*
X85250000Y-70681250D01*
G75*
G02*
X85000000Y-70431250I0J250000D01*
G01*
X85000000Y-69756250D01*
G75*
G02*
X85250000Y-69506250I250000J0D01*
G01*
X86200000Y-69506250D01*
G75*
G02*
X86450000Y-69756250I0J-250000D01*
G01*
X86450000Y-70431250D01*
G75*
G02*
X86200000Y-70681250I-250000J0D01*
G01*
G37*
%TD*%
%TO.C,C6*%
G36*
G01*
X86200000Y-63537500D02*
X85250000Y-63537500D01*
G75*
G02*
X85000000Y-63287500I0J250000D01*
G01*
X85000000Y-62612500D01*
G75*
G02*
X85250000Y-62362500I250000J0D01*
G01*
X86200000Y-62362500D01*
G75*
G02*
X86450000Y-62612500I0J-250000D01*
G01*
X86450000Y-63287500D01*
G75*
G02*
X86200000Y-63537500I-250000J0D01*
G01*
G37*
G36*
G01*
X86200000Y-61462500D02*
X85250000Y-61462500D01*
G75*
G02*
X85000000Y-61212500I0J250000D01*
G01*
X85000000Y-60537500D01*
G75*
G02*
X85250000Y-60287500I250000J0D01*
G01*
X86200000Y-60287500D01*
G75*
G02*
X86450000Y-60537500I0J-250000D01*
G01*
X86450000Y-61212500D01*
G75*
G02*
X86200000Y-61462500I-250000J0D01*
G01*
G37*
%TD*%
%TO.C,C7*%
G36*
G01*
X86200000Y-78131250D02*
X85250000Y-78131250D01*
G75*
G02*
X85000000Y-77881250I0J250000D01*
G01*
X85000000Y-77206250D01*
G75*
G02*
X85250000Y-76956250I250000J0D01*
G01*
X86200000Y-76956250D01*
G75*
G02*
X86450000Y-77206250I0J-250000D01*
G01*
X86450000Y-77881250D01*
G75*
G02*
X86200000Y-78131250I-250000J0D01*
G01*
G37*
G36*
G01*
X86200000Y-80206250D02*
X85250000Y-80206250D01*
G75*
G02*
X85000000Y-79956250I0J250000D01*
G01*
X85000000Y-79281250D01*
G75*
G02*
X85250000Y-79031250I250000J0D01*
G01*
X86200000Y-79031250D01*
G75*
G02*
X86450000Y-79281250I0J-250000D01*
G01*
X86450000Y-79956250D01*
G75*
G02*
X86200000Y-80206250I-250000J0D01*
G01*
G37*
%TD*%
%TO.C,C8*%
G36*
G01*
X86200000Y-73368750D02*
X85250000Y-73368750D01*
G75*
G02*
X85000000Y-73118750I0J250000D01*
G01*
X85000000Y-72443750D01*
G75*
G02*
X85250000Y-72193750I250000J0D01*
G01*
X86200000Y-72193750D01*
G75*
G02*
X86450000Y-72443750I0J-250000D01*
G01*
X86450000Y-73118750D01*
G75*
G02*
X86200000Y-73368750I-250000J0D01*
G01*
G37*
G36*
G01*
X86200000Y-75443750D02*
X85250000Y-75443750D01*
G75*
G02*
X85000000Y-75193750I0J250000D01*
G01*
X85000000Y-74518750D01*
G75*
G02*
X85250000Y-74268750I250000J0D01*
G01*
X86200000Y-74268750D01*
G75*
G02*
X86450000Y-74518750I0J-250000D01*
G01*
X86450000Y-75193750D01*
G75*
G02*
X86200000Y-75443750I-250000J0D01*
G01*
G37*
%TD*%
D13*
%TO.C,D1*%
X50812500Y-69056250D03*
X53962500Y-69056250D03*
%TD*%
%TO.C,D2*%
X50812500Y-88106250D03*
X53962500Y-88106250D03*
%TD*%
%TO.C,D3*%
X73012500Y-69056250D03*
X69862500Y-69056250D03*
%TD*%
%TO.C,D4*%
X73012500Y-88106250D03*
X69862500Y-88106250D03*
%TD*%
D14*
%TO.C,J1*%
X64587500Y-56712500D03*
X59237500Y-56712500D03*
D15*
X60312500Y-61912500D03*
X61112500Y-61912500D03*
X61912500Y-61912500D03*
X62712500Y-61912500D03*
X63512500Y-61912500D03*
D16*
X58262500Y-59512500D03*
X65562500Y-59512500D03*
%TD*%
%TO.C,R1*%
G36*
G01*
X85274999Y-86506250D02*
X86175001Y-86506250D01*
G75*
G02*
X86425000Y-86756249I0J-249999D01*
G01*
X86425000Y-87456251D01*
G75*
G02*
X86175001Y-87706250I-249999J0D01*
G01*
X85274999Y-87706250D01*
G75*
G02*
X85025000Y-87456251I0J249999D01*
G01*
X85025000Y-86756249D01*
G75*
G02*
X85274999Y-86506250I249999J0D01*
G01*
G37*
G36*
G01*
X85274999Y-88506250D02*
X86175001Y-88506250D01*
G75*
G02*
X86425000Y-88756249I0J-249999D01*
G01*
X86425000Y-89456251D01*
G75*
G02*
X86175001Y-89706250I-249999J0D01*
G01*
X85274999Y-89706250D01*
G75*
G02*
X85025000Y-89456251I0J249999D01*
G01*
X85025000Y-88756249D01*
G75*
G02*
X85274999Y-88506250I249999J0D01*
G01*
G37*
%TD*%
%TO.C,R2*%
G36*
G01*
X105225001Y-73418750D02*
X104324999Y-73418750D01*
G75*
G02*
X104075000Y-73168751I0J249999D01*
G01*
X104075000Y-72468749D01*
G75*
G02*
X104324999Y-72218750I249999J0D01*
G01*
X105225001Y-72218750D01*
G75*
G02*
X105475000Y-72468749I0J-249999D01*
G01*
X105475000Y-73168751D01*
G75*
G02*
X105225001Y-73418750I-249999J0D01*
G01*
G37*
G36*
G01*
X105225001Y-75418750D02*
X104324999Y-75418750D01*
G75*
G02*
X104075000Y-75168751I0J249999D01*
G01*
X104075000Y-74468749D01*
G75*
G02*
X104324999Y-74218750I249999J0D01*
G01*
X105225001Y-74218750D01*
G75*
G02*
X105475000Y-74468749I0J-249999D01*
G01*
X105475000Y-75168751D01*
G75*
G02*
X105225001Y-75418750I-249999J0D01*
G01*
G37*
%TD*%
%TO.C,R3*%
G36*
G01*
X86325000Y-56699999D02*
X86325000Y-57600001D01*
G75*
G02*
X86075001Y-57850000I-249999J0D01*
G01*
X85374999Y-57850000D01*
G75*
G02*
X85125000Y-57600001I0J249999D01*
G01*
X85125000Y-56699999D01*
G75*
G02*
X85374999Y-56450000I249999J0D01*
G01*
X86075001Y-56450000D01*
G75*
G02*
X86325000Y-56699999I0J-249999D01*
G01*
G37*
G36*
G01*
X88325000Y-56699999D02*
X88325000Y-57600001D01*
G75*
G02*
X88075001Y-57850000I-249999J0D01*
G01*
X87374999Y-57850000D01*
G75*
G02*
X87125000Y-57600001I0J249999D01*
G01*
X87125000Y-56699999D01*
G75*
G02*
X87374999Y-56450000I249999J0D01*
G01*
X88075001Y-56450000D01*
G75*
G02*
X88325000Y-56699999I0J-249999D01*
G01*
G37*
%TD*%
%TO.C,R4*%
G36*
G01*
X94468750Y-56699999D02*
X94468750Y-57600001D01*
G75*
G02*
X94218751Y-57850000I-249999J0D01*
G01*
X93518749Y-57850000D01*
G75*
G02*
X93268750Y-57600001I0J249999D01*
G01*
X93268750Y-56699999D01*
G75*
G02*
X93518749Y-56450000I249999J0D01*
G01*
X94218751Y-56450000D01*
G75*
G02*
X94468750Y-56699999I0J-249999D01*
G01*
G37*
G36*
G01*
X92468750Y-56699999D02*
X92468750Y-57600001D01*
G75*
G02*
X92218751Y-57850000I-249999J0D01*
G01*
X91518749Y-57850000D01*
G75*
G02*
X91268750Y-57600001I0J249999D01*
G01*
X91268750Y-56699999D01*
G75*
G02*
X91518749Y-56450000I249999J0D01*
G01*
X92218751Y-56450000D01*
G75*
G02*
X92468750Y-56699999I0J-249999D01*
G01*
G37*
%TD*%
D17*
%TO.C,SW1*%
X92100000Y-90006250D03*
X98400000Y-90006250D03*
X92100000Y-86206250D03*
X98400000Y-86206250D03*
%TD*%
M02*
